<svg width="24" height="24" viewBox="0 0 24 24" fill="none" xmlns="http://www.w3.org/2000/svg">
<path d="M16.8534 12.6044L16.4224 12.1635L19.3984 9.11872C19.5996 8.91294 19.8669 8.7998 20.1512 8.7998C20.4355 8.7998 20.7028 8.91294 20.9039 9.11872L21.3467 9.5717L20.9157 10.0126L20.4729 9.55967C20.3869 9.4717 20.2726 9.42338 20.1514 9.42338C20.0302 9.42338 19.9159 9.4717 19.8299 9.55967L16.8534 12.6044Z" fill="#673275"/>
<path d="M7.07379 15.9162H2.12165C1.95338 15.9162 1.81689 15.7765 1.81689 15.6044V13.5718C1.81689 13.3996 1.95338 13.26 2.12165 13.26H7.07379C7.24205 13.26 7.37854 13.3996 7.37854 13.5718V15.6044C7.37854 15.7765 7.24227 15.9162 7.07379 15.9162ZM2.42641 15.2926H6.76908V13.8835H2.42641V15.2926Z" fill="#EA7A3A"/>
<path d="M1.91016 17.3594H3.01575V17.983H1.91016V17.3594Z" fill="#EA7A3A"/>
<path d="M1.91016 19.3584H3.01575V19.982H1.91016V19.3584Z" fill="#EA7A3A"/>
<path d="M1.91016 21.3579H3.01575V21.9815H1.91016V21.3579Z" fill="#EA7A3A"/>
<path d="M4.04492 17.3594H5.15051V17.983H4.04492V17.3594Z" fill="#EA7A3A"/>
<path d="M4.04492 19.3584H5.15051V19.982H4.04492V19.3584Z" fill="#EA7A3A"/>
<path d="M4.04492 21.3579H5.15051V21.9815H4.04492V21.3579Z" fill="#EA7A3A"/>
<path d="M6.17969 17.3594H7.28528V17.983H6.17969V17.3594Z" fill="#EA7A3A"/>
<path d="M6.17969 19.3584H7.28528V19.982H6.17969V19.3584Z" fill="#EA7A3A"/>
<path d="M6.17969 21.3582H7.28528V21.9817H6.17969V21.3582Z" fill="#EA7A3A"/>
<path d="M21.1256 4.88049H17.8109C17.1768 4.88049 16.6606 4.35268 16.6606 3.7037V0.311951C16.6606 0.185903 16.7351 0.0721017 16.8487 0.0237727C16.9628 -0.024554 17.0938 0.00217031 17.1809 0.0914743L21.3413 4.34821C21.4284 4.43729 21.4548 4.57136 21.4075 4.68805C21.3598 4.80453 21.2486 4.88049 21.1256 4.88049ZM17.2699 1.06491V3.70393C17.2699 4.00881 17.5124 4.25712 17.8107 4.25712H20.3897L17.2699 1.06491Z" fill="#673275"/>
<path d="M13.9711 21.0514H12.2007C12.0325 21.0514 11.896 20.9118 11.896 20.7396V18.9282C11.896 18.8456 11.928 18.7661 11.9852 18.7077L20.9147 9.57271C20.9717 9.51414 21.0494 9.48096 21.1302 9.48096H21.1304C21.2112 9.48096 21.2889 9.51369 21.3459 9.57227L22.9243 11.1871C23.0327 11.2978 23.0932 11.4459 23.0932 11.6035C23.0932 11.7612 23.0335 11.9097 22.9243 12.0213L14.1865 20.9602C14.1295 21.0186 14.0518 21.0515 13.971 21.0515L13.9711 21.0514ZM12.5057 20.4278H13.8451L22.4703 11.6041L21.1307 10.2336L12.5061 19.0568L12.5057 20.4278Z" fill="#673275"/>
<path d="M22.4937 11.4989C22.4129 11.4989 22.3352 11.4662 22.2782 11.4076L21.3221 10.4295C21.2031 10.3077 21.2033 10.1101 21.3221 9.98855L22.3459 8.94118C22.5183 8.7648 22.7479 8.66748 22.9919 8.66748C23.236 8.66748 23.4656 8.7648 23.638 8.94118L23.7327 9.03806C24.089 9.40262 24.089 9.99546 23.7327 10.3602L22.709 11.4076C22.6522 11.4657 22.5746 11.4989 22.4937 11.4989ZM21.9688 10.209L22.4939 10.7462L23.3021 9.91927C23.4207 9.7979 23.4207 9.60036 23.3021 9.47899L23.2074 9.38211C23.1497 9.32309 23.0736 9.2908 22.9924 9.2908C22.911 9.2908 22.8348 9.32332 22.7773 9.38189L21.9688 10.209Z" fill="#673275"/>
<path d="M17.0059 14.0113L17.4369 13.5703L19.2073 15.3816L18.7763 15.8225L17.0059 14.0113Z" fill="#673275"/>
<path d="M11.4844 11.3423H14.8982V11.9659H11.4844V11.3423Z" fill="#EA7A3A"/>
<path d="M11.4844 13.4863H13.4787V14.1099H11.4844V13.4863Z" fill="#EA7A3A"/>
<path d="M8.30603 24.0001H0.888986C0.398994 24.0001 0 23.5923 0 23.0906V12.252C0 11.7507 0.398564 11.3425 0.888986 11.3425H8.30603C8.79602 11.3425 9.19501 11.7503 9.19501 12.252V23.0906C9.19458 23.5919 8.79601 24.0001 8.30603 24.0001ZM0.888986 11.9666C0.73509 11.9666 0.60949 12.0946 0.60949 12.2525V23.0911C0.60949 23.2485 0.734655 23.377 0.888986 23.377H8.30603C8.45992 23.377 8.58552 23.249 8.58552 23.0911V12.2525C8.58552 12.0951 8.46036 11.9666 8.30603 11.9666H0.888986Z" fill="#673275"/>
<path d="M20.2796 24H8.30594C8.13768 24 8.00119 23.8604 8.00119 23.6883C8.00119 23.5161 8.13767 23.3765 8.30594 23.3765C8.45984 23.3765 8.58544 23.2484 8.58544 23.0905V12.252C8.58544 12.0945 8.46027 11.966 8.30594 11.966H3.88776C3.7195 11.966 3.58301 11.8264 3.58301 11.6543V1.17774C3.58301 0.529005 4.0989 0.000732422 4.73346 0.000732422H16.9646C17.0454 0.000732422 17.1231 0.0334698 17.1801 0.0920427L21.3406 4.34878C21.3978 4.40735 21.4298 4.48664 21.4298 4.56926V9.79765C21.4298 9.88027 21.3978 9.95978 21.3406 10.0181L12.5053 19.0568V20.4273H13.8447L20.9095 13.1993C20.9966 13.1102 21.1276 13.0833 21.2417 13.1316C21.3558 13.18 21.4298 13.2935 21.4298 13.4198V22.8222C21.4298 23.4714 20.9138 24 20.2796 24ZM9.14962 23.3764H20.2791C20.5775 23.3764 20.82 23.1284 20.82 22.823L20.8202 14.1732L14.1861 20.9599C14.1289 21.0185 14.0514 21.0512 13.9706 21.0512H12.2002C12.032 21.0512 11.8955 20.9116 11.8955 20.7394V18.928C11.8955 18.8453 11.9275 18.7658 11.9847 18.7075L20.82 9.66882L20.8202 4.6983L16.8382 0.624169H4.73302C4.43459 0.624169 4.1921 0.872262 4.1921 1.17758V11.3428H8.30552C8.79551 11.3428 9.19451 11.7506 9.19451 12.2523V23.0909C9.19407 23.1906 9.17857 23.2863 9.14962 23.3764Z" fill="#673275"/>
<path d="M7.62451 7.86675L11.7367 3.65967L12.1677 4.10062L8.05551 8.3077L7.62451 7.86675Z" fill="#EA7A3A"/>
<path d="M8.40379 5.59843C7.78819 5.59843 7.28711 5.08621 7.28711 4.45643C7.28711 3.82662 7.78777 3.31396 8.40379 3.31396C9.01961 3.31396 9.52047 3.82618 9.52047 4.45643C9.52047 5.08647 9.01938 5.59843 8.40379 5.59843ZM8.40379 3.9375C8.12429 3.9375 7.8966 4.17 7.8966 4.4564C7.8966 4.74235 8.12385 4.97486 8.40379 4.97486C8.6835 4.97486 8.91098 4.74236 8.91098 4.4564C8.91076 4.17001 8.68329 3.9375 8.40379 3.9375Z" fill="#EA7A3A"/>
<path d="M11.3887 8.65287C10.7731 8.65287 10.2725 8.14066 10.2725 7.51041C10.2725 6.88038 10.7731 6.36841 11.3887 6.36841C12.0043 6.36841 12.5054 6.88063 12.5054 7.51041C12.5054 8.1402 12.0043 8.65287 11.3887 8.65287ZM11.3887 6.99195C11.1092 6.99195 10.8819 7.22445 10.8819 7.5104C10.8819 7.79636 11.1092 8.0293 11.3887 8.0293C11.6682 8.0293 11.8959 7.7968 11.8959 7.5104C11.8959 7.2249 11.6682 6.99195 11.3887 6.99195Z" fill="#EA7A3A"/>
</svg>
