<svg width="12" height="12" viewBox="0 0 12 12" fill="none" xmlns="http://www.w3.org/2000/svg">
<path fill-rule="evenodd" clip-rule="evenodd" d="M5.99997 4.27503L10.8621 9.1372C11.1235 9.39852 11.5453 9.39837 11.8053 9.13813C12.065 8.87851 12.0651 8.45562 11.8044 8.19492L6.53697 2.92787C6.51853 2.90324 6.49809 2.8797 6.47563 2.85724C6.34442 2.72604 6.17201 2.66082 5.99992 2.66221C5.82782 2.66082 5.65541 2.72604 5.52421 2.85724C5.50175 2.8797 5.4813 2.90325 5.46271 2.92787L0.195663 8.19492C-0.0650396 8.45563 -0.0650396 8.87851 0.194579 9.13813C0.454819 9.39837 0.876456 9.39852 1.13779 9.1372L5.99997 4.27503Z" fill="#673275"/>
</svg>