<svg width="5" height="9" viewBox="0 0 5 9" fill="none" xmlns="http://www.w3.org/2000/svg">
<path fill-rule="evenodd" clip-rule="evenodd" d="M3.14851 4.00145L-0.0929322 7.24289C-0.267147 7.4171 -0.267044 7.69832 -0.0935518 7.87169C0.0795287 8.04477 0.361456 8.04488 0.535253 7.87107L4.04662 4.35944C4.06304 4.34715 4.07873 4.33352 4.09371 4.31855C4.18118 4.23108 4.22465 4.11614 4.22373 4.00141C4.22465 3.88668 4.18118 3.77174 4.09371 3.68427C4.07873 3.6693 4.06304 3.65567 4.04662 3.64327L0.535253 0.131907C0.36145 -0.0418949 0.079531 -0.0418949 -0.0935522 0.131185C-0.267045 0.304677 -0.267148 0.585769 -0.0929325 0.759989L3.14851 4.00145Z" fill="#673275"/>
</svg>
