<svg width="40" height="40" viewBox="0 0 40 40" fill="none" xmlns="http://www.w3.org/2000/svg">
<path d="M21.1374 8.86785L9.00519 7.02429C8.44219 6.93597 7.86814 7.09052 7.43761 7.45482C7.00708 7.83016 6.75317 8.37108 6.75317 8.93409V32.1939C6.75317 32.8011 7.24994 33.2978 7.8571 33.2978H11.4449V27.5022C11.4449 26.4314 12.3059 25.5703 13.3768 25.5703H16.1366C17.2074 25.5703 18.0685 26.4314 18.0685 27.5022V33.2978H22.7602V10.7777C22.7602 9.82827 22.0757 9.0224 21.1374 8.86785ZM12.8248 23.0865H11.1689C10.9493 23.0865 10.7387 22.9992 10.5834 22.844C10.4282 22.6887 10.3409 22.4781 10.3409 22.2585C10.3409 22.0389 10.4282 21.8283 10.5834 21.6731C10.7387 21.5178 10.9493 21.4306 11.1689 21.4306H12.8248C13.0444 21.4306 13.255 21.5178 13.4102 21.6731C13.5655 21.8283 13.6527 22.0389 13.6527 22.2585C13.6527 22.4781 13.5655 22.6887 13.4102 22.844C13.255 22.9992 13.0444 23.0865 12.8248 23.0865ZM12.8248 19.7747H11.1689C10.9493 19.7747 10.7387 19.6875 10.5834 19.5322C10.4282 19.3769 10.3409 19.1663 10.3409 18.9467C10.3409 18.7271 10.4282 18.5166 10.5834 18.3613C10.7387 18.206 10.9493 18.1188 11.1689 18.1188H12.8248C13.0444 18.1188 13.255 18.206 13.4102 18.3613C13.5655 18.5166 13.6527 18.7271 13.6527 18.9467C13.6527 19.1663 13.5655 19.3769 13.4102 19.5322C13.255 19.6875 13.0444 19.7747 12.8248 19.7747ZM12.8248 16.4629H11.1689C10.9493 16.4629 10.7387 16.3757 10.5834 16.2204C10.4282 16.0651 10.3409 15.8545 10.3409 15.6349C10.3409 15.4154 10.4282 15.2048 10.5834 15.0495C10.7387 14.8942 10.9493 14.807 11.1689 14.807H12.8248C13.0444 14.807 13.255 14.8942 13.4102 15.0495C13.5655 15.2048 13.6527 15.4154 13.6527 15.6349C13.6527 15.8545 13.5655 16.0651 13.4102 16.2204C13.255 16.3757 13.0444 16.4629 12.8248 16.4629ZM12.8248 13.1511H11.1689C10.9493 13.1511 10.7387 13.0639 10.5834 12.9086C10.4282 12.7533 10.3409 12.5427 10.3409 12.3232C10.3409 12.1036 10.4282 11.893 10.5834 11.7377C10.7387 11.5824 10.9493 11.4952 11.1689 11.4952H12.8248C13.0444 11.4952 13.255 11.5824 13.4102 11.7377C13.5655 11.893 13.6527 12.1036 13.6527 12.3232C13.6527 12.5427 13.5655 12.7533 13.4102 12.9086C13.255 13.0639 13.0444 13.1511 12.8248 13.1511ZM18.3444 23.0865H16.6885C16.469 23.0865 16.2584 22.9992 16.1031 22.844C15.9478 22.6887 15.8606 22.4781 15.8606 22.2585C15.8606 22.0389 15.9478 21.8283 16.1031 21.6731C16.2584 21.5178 16.469 21.4306 16.6885 21.4306H18.3444C18.564 21.4306 18.7746 21.5178 18.9299 21.6731C19.0852 21.8283 19.1724 22.0389 19.1724 22.2585C19.1724 22.4781 19.0852 22.6887 18.9299 22.844C18.7746 22.9992 18.564 23.0865 18.3444 23.0865ZM18.3444 19.7747H16.6885C16.469 19.7747 16.2584 19.6875 16.1031 19.5322C15.9478 19.3769 15.8606 19.1663 15.8606 18.9467C15.8606 18.7271 15.9478 18.5166 16.1031 18.3613C16.2584 18.206 16.469 18.1188 16.6885 18.1188H18.3444C18.564 18.1188 18.7746 18.206 18.9299 18.3613C19.0852 18.5166 19.1724 18.7271 19.1724 18.9467C19.1724 19.1663 19.0852 19.3769 18.9299 19.5322C18.7746 19.6875 18.564 19.7747 18.3444 19.7747ZM18.3444 16.4629H16.6885C16.469 16.4629 16.2584 16.3757 16.1031 16.2204C15.9478 16.0651 15.8606 15.8545 15.8606 15.6349C15.8606 15.4154 15.9478 15.2048 16.1031 15.0495C16.2584 14.8942 16.469 14.807 16.6885 14.807H18.3444C18.564 14.807 18.7746 14.8942 18.9299 15.0495C19.0852 15.2048 19.1724 15.4154 19.1724 15.6349C19.1724 15.8545 19.0852 16.0651 18.9299 16.2204C18.7746 16.3757 18.564 16.4629 18.3444 16.4629ZM18.3444 13.1511H16.6885C16.469 13.1511 16.2584 13.0639 16.1031 12.9086C15.9478 12.7533 15.8606 12.5427 15.8606 12.3232C15.8606 12.1036 15.9478 11.893 16.1031 11.7377C16.2584 11.5824 16.469 11.4952 16.6885 11.4952H18.3444C18.564 11.4952 18.7746 11.5824 18.9299 11.7377C19.0852 11.893 19.1724 12.1036 19.1724 12.3232C19.1724 12.5427 19.0852 12.7533 18.9299 12.9086C18.7746 13.0639 18.564 13.1511 18.3444 13.1511ZM31.7241 18.7723L23.8641 17.1264V33.2978H31.3156C32.3809 33.2978 33.2475 32.4312 33.2475 31.3659V20.66C33.2475 19.7482 32.626 18.9721 31.7241 18.7723ZM29.1078 29.986H27.4519C27.2323 29.986 27.0217 29.8988 26.8664 29.7435C26.7111 29.5883 26.6239 29.3777 26.6239 29.1581C26.6239 28.9385 26.7111 28.7279 26.8664 28.5726C27.0217 28.4174 27.2323 28.3301 27.4519 28.3301H29.1078C29.3273 28.3301 29.5379 28.4174 29.6932 28.5726C29.8485 28.7279 29.9357 28.9385 29.9357 29.1581C29.9357 29.3777 29.8485 29.5883 29.6932 29.7435C29.5379 29.8988 29.3273 29.986 29.1078 29.986ZM29.1078 26.6742H27.4519C27.2323 26.6742 27.0217 26.587 26.8664 26.4317C26.7111 26.2765 26.6239 26.0659 26.6239 25.8463C26.6239 25.6267 26.7111 25.4161 26.8664 25.2608C27.0217 25.1056 27.2323 25.0184 27.4519 25.0184H29.1078C29.3273 25.0184 29.5379 25.1056 29.6932 25.2608C29.8485 25.4161 29.9357 25.6267 29.9357 25.8463C29.9357 26.0659 29.8485 26.2765 29.6932 26.4317C29.5379 26.587 29.3273 26.6742 29.1078 26.6742ZM29.1078 23.3625H27.4519C27.2323 23.3625 27.0217 23.2752 26.8664 23.12C26.7111 22.9647 26.6239 22.7541 26.6239 22.5345C26.6239 22.3149 26.7111 22.1043 26.8664 21.9491C27.0217 21.7938 27.2323 21.7066 27.4519 21.7066H29.1078C29.3273 21.7066 29.5379 21.7938 29.6932 21.9491C29.8485 22.1043 29.9357 22.3149 29.9357 22.5345C29.9357 22.7541 29.8485 22.9647 29.6932 23.12C29.5379 23.2752 29.3273 23.3625 29.1078 23.3625Z" fill="#EA7A3A"/>
</svg>
