<svg width="48" height="48" viewBox="0 0 48 48" fill="none" xmlns="http://www.w3.org/2000/svg">
<path d="M11.7709 2.7893C11.7705 2.78896 11.7702 2.78862 11.7699 2.78828L11.0826 3.43421H11.0041C10.5597 2.97822 9.95515 2.69675 9.28865 2.69675C8.6225 2.69675 8.01756 2.97684 7.57312 3.43421H7.49444L6.8055 2.79031C6.45743 3.16272 6.18661 3.61193 6.0158 4.10955L5.56109 5.43421H6.96163H11.6157H13.0111L12.5626 4.1128C12.393 3.61307 12.1213 3.16244 11.7709 2.7893ZM11.7709 2.7893C11.7712 2.78964 11.7715 2.78998 11.7718 2.79031L11.0829 3.43421H11.6157V4.43421L10.6687 4.75563C10.6299 4.6411 10.5798 4.53353 10.5205 4.43421H8.05783C7.99798 4.53442 7.94721 4.64308 7.90746 4.75888L6.96163 4.43421V3.43421H7.49431L6.80445 2.79143C7.42693 2.12336 8.30611 1.69675 9.28865 1.69675C10.2725 1.69675 11.1499 2.12545 11.7709 2.7893ZM8.61248 8.92283L8.64572 8.99637H9.29107C9.37174 8.99637 9.55071 9.08743 9.55071 9.34412C9.55071 9.46164 9.50669 9.55481 9.45114 9.61426C9.39668 9.67253 9.33989 9.69187 9.29107 9.69187C8.21482 9.69187 7.2254 9.22557 6.49411 8.4431L6.49203 8.44089C6.0698 7.99186 5.73606 7.43723 5.52845 6.81245L5.33922 6.24298L6.70586 7.78715L6.78742 7.87931L6.79524 7.88814L6.80327 7.89679C7.27792 8.40826 7.90479 8.77723 8.61248 8.92283ZM5.23727 6.12779H4.57947H2.5218H1.5218V7.12779V12.8258V13.8258H2.5218H37.2222H38.2222V12.8258V7.12779V6.12779H37.2222H28.6142H26.4607L26.4601 6.12595H25.7398H18.036H15.8787L15.8782 6.1244H15.1567H7.4547H5.23428L5.23727 6.12779ZM16.1057 6.80907L15.9167 6.2402L17.2871 7.7887L17.3687 7.88085L17.3765 7.88969L17.3845 7.89834C18.0054 8.56738 18.8872 8.99299 19.8683 8.99299C19.949 8.99299 20.128 9.08404 20.128 9.34074C20.128 9.45825 20.0839 9.55142 20.0284 9.61087C19.9739 9.66915 19.9171 9.68849 19.8683 9.68849C18.7936 9.68849 17.8025 9.22203 17.0714 8.43971L17.0693 8.4375C16.6471 7.98847 16.3133 7.43384 16.1057 6.80907ZM26.6883 6.80916L26.4625 6.1331L27.8508 7.77374L27.881 7.80948L27.9066 7.83973L27.9345 7.86786L27.9793 7.91302C28.5994 8.57044 29.4726 8.99482 30.4497 8.99482C30.5303 8.99482 30.7093 9.08588 30.7093 9.34257C30.7093 9.46008 30.6653 9.55326 30.6097 9.61271C30.5553 9.67099 30.4985 9.69032 30.4497 9.69032C29.3765 9.69032 28.3912 9.22916 27.6619 8.45446L27.6034 8.38643L27.5968 8.37869L27.59 8.37109C27.1967 7.93206 26.8861 7.4013 26.6883 6.80916ZM25.1574 23.4549C27.4266 21.0269 30.5221 19.5177 33.9354 19.4456H34.1892C35.1518 19.4456 36.0882 19.5592 36.9888 19.7753L38.2221 20.0713V18.8029V15.5236V14.5236H37.2221H2.52171H1.52171V15.5236V39.5714V40.5714H2.52171H21.7187H23.2593L22.6321 39.1643C21.8312 37.3675 21.3807 35.353 21.3807 33.2201C21.3807 29.3945 22.8306 25.9434 25.1573 23.455L25.1574 23.4549ZM38.7429 19.6894L38.7428 20.3242L39.3172 20.5944C40.7797 21.2824 42.1027 22.2571 43.2229 23.4571L43.2233 23.4576C45.5502 25.9473 47 29.3985 47 33.2228C47 37.0482 45.5502 40.498 43.2232 42.9881C40.8975 45.4768 37.7021 47 34.1889 47C30.6747 47 27.4807 45.4766 25.1544 42.988C24.7714 42.5782 24.412 42.1425 24.0794 41.6842L23.7799 41.2716H23.2701H1.25964C1.17897 41.2716 1 41.1805 1 40.9238V5.7837C1 5.66618 1.04401 5.57301 1.09957 5.51356C1.15402 5.45529 1.21082 5.43595 1.25964 5.43595H4.36536H5.21622L5.35246 4.59607C5.50096 3.68062 5.91 2.86953 6.48708 2.25205C7.21843 1.46954 8.20932 1.00144 9.29008 1.00144C10.37 1.00144 11.3621 1.46843 12.0924 2.25136L12.0931 2.25205C12.671 2.87039 13.0804 3.67947 13.2274 4.59455L13.3626 5.43595H14.2148H14.9481H15.799L15.9352 4.59607C16.0837 3.68062 16.4928 2.86951 17.0699 2.25204C17.8013 1.46941 18.7923 1.00144 19.8714 1.00144C20.9515 1.00144 21.9439 1.46855 22.6744 2.25022L23.405 1.5674L22.6744 2.25022C23.2521 2.8683 23.6618 3.6792 23.8088 4.59298L23.9442 5.43412H24.7961H25.5295H26.38L26.5165 4.59466C26.6649 3.68271 27.0736 2.87319 27.6512 2.25512L27.6529 2.25329C28.3835 1.46769 29.3751 1 30.4542 1C31.5343 1 32.5266 1.46711 33.2572 2.24877L33.9878 1.56596L33.2572 2.24878C33.8349 2.86685 34.2446 3.67775 34.3916 4.59154L34.527 5.43267H35.3789H38.4846C38.5653 5.43267 38.7442 5.5237 38.7443 5.78032C38.7443 5.78035 38.7443 5.78039 38.7443 5.78042L38.7429 19.6894ZM38.4467 20.9491L38.4442 20.9482L38.3988 20.9305L38.3963 20.9295C37.0838 20.4221 35.6659 20.1437 34.1892 20.1437C30.7728 20.1437 27.6901 21.6278 25.4751 23.9992C23.2617 26.3677 21.8992 29.6333 21.8992 33.2235C21.8992 36.8135 23.2602 40.0793 25.4754 42.448C27.69 44.8176 30.7725 46.3033 34.1892 46.3033C37.6057 46.3033 40.6883 44.8193 42.9033 42.4478C45.1168 40.0794 46.4793 36.8137 46.4793 33.2235C46.4793 29.6336 45.1183 26.3661 42.9029 23.9973C41.6597 22.6672 40.1441 21.616 38.4467 20.9491ZM18.0757 3.43421L17.3883 2.79182C17.0403 3.16423 16.7695 3.61343 16.5986 4.11105L17.5459 4.68041V5.43421H22.1967H23.5973L23.1425 4.10955C22.9726 3.61435 22.7039 3.16408 22.3519 2.7893C21.7299 2.12429 20.852 1.69826 19.8697 1.69826C18.8881 1.69826 18.0094 2.12525 17.3873 2.79294L18.0757 3.43421ZM27.1767 4.11512L28.1254 4.70312L32.9341 2.79031C32.9337 2.78998 32.9334 2.78964 32.9331 2.7893C32.3111 2.12429 31.4333 1.69826 30.4509 1.69826C29.4714 1.69826 28.5917 2.12351 27.9691 2.79033C27.6171 3.16357 27.3454 3.61656 27.1767 4.11512Z" fill="#673275" stroke="#673275" stroke-width="2"/>
<path d="M33.9292 26.0364V26.0362C33.9292 25.9187 33.9732 25.8255 34.0287 25.7661C34.0832 25.7078 34.14 25.6885 34.1888 25.6885C34.2695 25.6885 34.4484 25.7795 34.4484 26.0362V32.5302V33.0262L34.8434 33.3264L38.6047 36.1849C38.7344 36.2836 38.7938 36.5278 38.6723 36.7107L38.6723 36.7107C38.6207 36.7883 38.5599 36.8177 38.5132 36.8261C38.4674 36.8343 38.4145 36.8269 38.358 36.7839L38.3577 36.7837L34.1439 33.5803L34.1133 33.5571L34.0811 33.5362C34.0047 33.4869 33.9278 33.3769 33.9277 33.2214C33.9277 33.2214 33.9277 33.2214 33.9277 33.2214C33.9277 33.2213 33.9277 33.2213 33.9277 33.2212L33.9292 26.0364Z" fill="#EA7A3A" stroke="#EA7A40" stroke-width="2"/>
</svg>
