<svg width="48" height="48" viewBox="0 0 48 48" fill="none" xmlns="http://www.w3.org/2000/svg">
<path d="M43.8598 13.52L37.1198 40.5801C36.6398 42.6001 34.8398 44 32.7598 44H6.47977C3.45977 44 1.2998 41.0399 2.1998 38.1399L10.6198 11.1001C11.1998 9.2201 12.9398 7.91992 14.8998 7.91992H39.4998C41.3998 7.91992 42.9798 9.07993 43.6398 10.6799C44.0198 11.5399 44.0998 12.52 43.8598 13.52Z" stroke="#673275" stroke-width="2" stroke-miterlimit="10"/>
<path d="M32 44H41.56C44.14 44 46.16 41.82 45.98 39.24L44 12" stroke="#673275" stroke-width="2" stroke-miterlimit="10" stroke-linecap="round" stroke-linejoin="round"/>
<path d="M19.3599 12.76L21.4399 4.12012" stroke="#673275" stroke-width="2" stroke-miterlimit="10" stroke-linecap="round" stroke-linejoin="round"/>
<path d="M32.7598 12.78L34.6398 4.1001" stroke="#673275" stroke-width="2" stroke-miterlimit="10" stroke-linecap="round" stroke-linejoin="round"/>
<path d="M15.3999 24H31.3999" stroke="#EA7A40" stroke-width="2" stroke-miterlimit="10" stroke-linecap="round" stroke-linejoin="round"/>
<path d="M13.3999 32H29.3999" stroke="#EA7A40" stroke-width="2" stroke-miterlimit="10" stroke-linecap="round" stroke-linejoin="round"/>
</svg>
