<svg width="40" height="40" viewBox="0 0 40 40" fill="none" xmlns="http://www.w3.org/2000/svg">
<g clip-path="url(#clip0_104_39733)">
<path fill-rule="evenodd" clip-rule="evenodd" d="M20 18.3334C22.7614 18.3334 25 16.0948 25 13.3334C25 10.572 22.7614 8.33337 20 8.33337C17.2386 8.33337 15 10.572 15 13.3334C15 16.0948 17.2386 18.3334 20 18.3334ZM20 31.6667C25.5228 31.6667 30 29.4281 30 26.6667C30 23.9053 25.5228 21.6667 20 21.6667C14.4772 21.6667 10 23.9053 10 26.6667C10 29.4281 14.4772 31.6667 20 31.6667ZM10.6361 21.6984C6.51998 21.9523 3.33333 23.7069 3.33333 25.8336C3.33333 27.5868 5.49915 29.0872 8.56605 29.7023C7.88072 28.7743 7.5 27.7473 7.5 26.6669C7.5 24.7612 8.6846 23.0215 10.6361 21.6984ZM32.5001 26.6669C32.5001 27.7473 32.1194 28.7743 31.4341 29.7023C34.501 29.0872 36.6668 27.5868 36.6668 25.8336C36.6668 23.7069 33.4801 21.9523 29.364 21.6984C31.3155 23.0215 32.5001 24.7612 32.5001 26.6669ZM26.1971 17.559C27.0192 16.3557 27.4999 14.9007 27.4999 13.3334C27.4999 12.8133 27.447 12.3055 27.3462 11.8153C27.6581 11.7187 27.9896 11.6667 28.3333 11.6667C30.1742 11.6667 31.6666 13.1591 31.6666 15C31.6666 16.841 30.1742 18.3334 28.3333 18.3334C27.5205 18.3334 26.7756 18.0424 26.1971 17.559ZM11.6667 11.6667C12.0103 11.6667 12.3418 11.7187 12.6537 11.8153C12.5529 12.3055 12.5 12.8133 12.5 13.3334C12.5 14.9007 12.9808 16.3557 13.8028 17.559C13.2244 18.0424 12.4795 18.3334 11.6667 18.3334C9.82572 18.3334 8.33333 16.841 8.33333 15C8.33333 13.1591 9.82572 11.6667 11.6667 11.6667Z" fill="#EA7A3A"/>
</g>
<defs>
<clipPath id="clip0_104_39733">
<rect width="40" height="40" fill="white"/>
</clipPath>
</defs>
</svg>
