<svg width="24" height="24" viewBox="0 0 24 24" fill="none" xmlns="http://www.w3.org/2000/svg">
<path fill-rule="evenodd" clip-rule="evenodd" d="M10.2858 2.5713C10.2858 1.15185 9.13371 0 7.71431 0H2.5713C1.15185 0 0 1.1519 0 2.5713V7.71431C0 9.13377 1.1519 10.2858 2.5713 10.2858H7.71431C9.13376 10.2858 10.2858 9.13371 10.2858 7.71431V2.5713ZM8.57143 2.5713V7.71431C8.57143 8.18746 8.18746 8.57143 7.71431 8.57143H2.5713C2.09816 8.57143 1.71418 8.18747 1.71418 7.71431V2.5713C1.71418 2.09816 2.09815 1.71418 2.5713 1.71418H7.71431C8.18746 1.71418 8.57143 2.09815 8.57143 2.5713Z" fill="#673275"/>
<path fill-rule="evenodd" clip-rule="evenodd" d="M10.2858 16.2854C10.2858 14.866 9.13371 13.7141 7.71431 13.7141H2.5713C1.15185 13.7141 0 14.866 0 16.2854V21.4284C0 22.8479 1.1519 23.9999 2.5713 23.9999H7.71431C9.13376 23.9999 10.2858 22.8478 10.2858 21.4284V16.2854ZM8.57143 16.2854V21.4284C8.57143 21.9016 8.18746 22.2855 7.71431 22.2855H2.5713C2.09816 22.2855 1.71418 21.9016 1.71418 21.4284V16.2854C1.71418 15.8123 2.09815 15.4283 2.5713 15.4283H7.71431C8.18746 15.4283 8.57143 15.8123 8.57143 16.2854Z" fill="#673275"/>
<path fill-rule="evenodd" clip-rule="evenodd" d="M24.0002 2.5713C24.0002 1.15185 22.8483 0 21.4289 0H16.2859C14.8664 0 13.7144 1.1519 13.7144 2.5713V7.71431C13.7144 9.13377 14.8665 10.2858 16.2859 10.2858H21.4289C22.8483 10.2858 24.0002 9.13371 24.0002 7.71431V2.5713ZM22.2859 2.5713V7.71431C22.2859 8.18746 21.902 8.57143 21.4288 8.57143H16.2858C15.8127 8.57143 15.4287 8.18747 15.4287 7.71431V2.5713C15.4287 2.09816 15.8127 1.71418 16.2858 1.71418H21.4288C21.902 1.71418 22.2859 2.09815 22.2859 2.5713Z" fill="#673275"/>
<path fill-rule="evenodd" clip-rule="evenodd" d="M23.1438 17.9996H14.5725C14.0993 17.9996 13.7153 18.3836 13.7153 18.8568C13.7153 19.3301 14.0993 19.714 14.5725 19.714H23.1438C23.617 19.714 24.001 19.3301 24.001 18.8568C24.001 18.3836 23.617 17.9996 23.1438 17.9996Z" fill="#EA7A3A"/>
<path fill-rule="evenodd" clip-rule="evenodd" d="M19.7146 23.1432L19.715 14.5716C19.7149 14.0984 19.3309 13.7145 18.8578 13.7144C18.3846 13.7144 18.0006 14.0983 18.0006 14.5716L18.0006 23.1428C18.0006 23.616 18.3846 24 18.8578 24C19.3309 24.0001 19.7148 23.6163 19.7146 23.1432Z" fill="#EA7A3A"/>
</svg>
