<svg width="24" height="24" viewBox="0 0 24 24" fill="none" xmlns="http://www.w3.org/2000/svg">
<path d="M4.64553 3.99819C4.99323 3.99819 5.27535 4.29986 5.27535 4.67206C5.27535 5.04408 4.9934 5.34594 4.64553 5.34594C3.95753 5.34594 3.33387 5.04671 2.88176 4.56296C2.62019 4.2848 2.4161 3.94417 2.28974 3.56389H1.2609V6.41289H18.6111V3.56389H14.3071L14.3222 3.58176L14.3494 3.60922C14.5732 3.84864 14.8831 3.99741 15.2248 3.99741C15.5725 3.99741 15.8547 4.29909 15.8547 4.67129C15.8547 5.0433 15.5727 5.34516 15.2248 5.34516C14.5354 5.34516 13.9109 5.04593 13.4588 4.56127L13.4226 4.51914C13.1798 4.24812 12.9901 3.92293 12.8699 3.56297H9.01799L9.05877 3.60905C9.28096 3.84848 9.59175 3.99649 9.93416 3.99649C10.2819 3.99649 10.564 4.29817 10.564 4.67037C10.564 5.04239 10.282 5.34424 9.93416 5.34424C9.24701 5.34424 8.6225 5.04502 8.17038 4.56127C7.90882 4.2831 7.70472 3.94247 7.57836 3.5622H3.72735L3.76813 3.60828C3.99032 3.8477 4.30111 3.99572 4.64442 3.99572L4.64553 3.99819ZM17.0946 9.22279C17.6154 9.22279 18.1228 9.28429 18.6111 9.40146V7.76179H1.26086V19.7857H10.8594C10.4306 18.8239 10.1903 17.7473 10.1903 16.61C10.1903 14.57 10.9638 12.7225 12.2134 11.386C13.4631 10.049 15.189 9.22144 17.0959 9.22144L17.0946 9.22279ZM19.8714 9.84476C20.6623 10.2168 21.3751 10.7426 21.9769 11.3874C23.2266 12.7244 24 14.5719 24 16.6114C24 18.6515 23.2265 20.4982 21.9769 21.8354C20.7273 23.1726 19.0006 24 17.0944 24C15.1877 24 13.4617 23.1724 12.2119 21.8354C12.0063 21.6154 11.8134 21.3816 11.635 21.1358H0.62982C0.282123 21.1358 0 20.8341 0 20.4619V2.89185C0 2.51983 0.281952 2.21797 0.62982 2.21797H2.18268C2.27268 1.66317 2.52141 1.16643 2.87825 0.784615C3.33036 0.300875 3.95474 0.000722186 4.64504 0.000722186C5.33444 0.000722186 5.95971 0.299951 6.41183 0.784615C6.76867 1.16641 7.01812 1.6622 7.1074 2.21797H7.47407C7.56407 1.66317 7.8128 1.16643 8.16964 0.784615C8.62175 0.300875 9.24613 0.000722186 9.93571 0.000722186C10.6251 0.000722186 11.2504 0.299951 11.7025 0.7837C12.0593 1.1655 12.3088 1.6622 12.3981 2.21706H12.7647C12.8547 1.66374 13.1035 1.16797 13.4603 0.786156C13.9124 0.29996 14.5377 0 15.2271 0C15.9165 0 16.5418 0.299228 16.9939 0.782978C17.3507 1.16478 17.6002 1.66148 17.6895 2.21634H19.2423C19.59 2.21634 19.8721 2.51801 19.8721 2.89021L19.8714 9.84476ZM21.0862 12.3402C20.5132 11.7271 19.8169 11.245 19.0405 10.9399L19.0178 10.9311C18.4175 10.699 17.7696 10.5719 17.0946 10.5719C15.5358 10.5719 14.1236 11.2482 13.103 12.3409C12.0824 13.4329 11.4496 14.9439 11.4496 16.6118C11.4496 18.2796 12.0817 19.7906 13.103 20.8826C14.1236 21.9746 15.5358 22.6516 17.0946 22.6516C18.6535 22.6516 20.0657 21.9753 21.0863 20.8826C22.1069 19.7906 22.7396 18.2796 22.7396 16.6118C22.7396 14.9439 22.1075 13.4322 21.0862 12.3402ZM5.80784 2.21711C5.74579 2.03429 5.64682 1.87086 5.52061 1.73657C5.29684 1.49714 4.98696 1.34838 4.64433 1.34838C4.3019 1.34838 3.99183 1.49639 3.76804 1.73657C3.64253 1.87086 3.54357 2.03429 3.48082 2.21711H5.80784ZM8.77294 2.21711H11.0984C11.0356 2.03429 10.9373 1.87086 10.8111 1.73657C10.5874 1.49714 10.2775 1.34913 9.93484 1.34913C9.59312 1.34913 9.28325 1.49714 9.05946 1.73732C8.93395 1.87161 8.83499 2.03505 8.77223 2.21786L8.77294 2.21711ZM14.0627 2.21711H16.389C16.3262 2.03429 16.228 1.87086 16.1017 1.73657C15.878 1.49714 15.5681 1.34913 15.2255 1.34913C14.8837 1.34913 14.573 1.49714 14.3492 1.73732C14.223 1.87085 14.1238 2.03505 14.0619 2.21786L14.0627 2.21711Z" fill="#6B2F75"/>
<path d="M17.0944 12.3442C16.7465 12.3442 16.4646 12.6461 16.4646 13.0181L16.4639 16.6106C16.4639 16.8557 16.5864 17.0701 16.7694 17.1882L18.8763 18.7899C19.1591 19.005 19.5515 18.9347 19.7526 18.6321C19.9537 18.3295 19.8879 17.9097 19.6051 17.6945L17.7242 16.2651V13.0181C17.7242 12.6459 17.4421 12.3442 17.0944 12.3442Z" fill="#EA7A3A"/>
</svg>
