<svg width="22" height="20" viewBox="0 0 22 20" fill="none" xmlns="http://www.w3.org/2000/svg">
<path d="M3.99984 0.000118982V4.66667H0.666504V16.6667H3.99984V20H21.3332V0L3.99984 0.000118982ZM3.99984 8.00012H5.7665L6.66656 9.33333L7.56662 8.00012H9.33305L7.56638 10.6668L9.33305 13.3336H7.56638L6.66656 12.0004L5.7665 13.3336H3.99984L5.7665 10.6668L3.99984 8.00012ZM19.9998 18.6668H5.33317V16.6667H12.6665V12.6667H18V11.3335L12.6665 11.3333V10.0001H18V8.66685H12.6665V7.33364H18V6.00042L12.6665 6.00019V4.66698L5.33317 4.66674V1.33341H19.9998V18.6668Z" fill="#EA7A3A"/>
<path d="M3.99984 4.66667L0.666504 4.6665V16.6665H3.99984H12.3332V4.6668L3.99984 4.66667ZM3.99984 7.99996H5.7665L6.66656 9.33317L7.56662 7.99996H9.33305L7.56638 10.6667L9.33305 13.3334H7.56638L6.66656 12.0002L5.7665 13.3334H3.99984L5.7665 10.6667L3.99984 7.99996ZM10.9998 15.6666H5.33317V16.6665H12.6665V12.6666H18V11.3333L12.6665 11.3331V9.9999H18V8.66669H12.6665V7.33347H18V6.00026L12.6665 6.00003V4.66681L5.33317 4.66658V5.33325H10.9998V15.6666Z" fill="#673275"/>
</svg>
