<svg width="24" height="24" viewBox="0 0 24 24" fill="none" xmlns="http://www.w3.org/2000/svg">
<path d="M7.25662 8.79257H17.4616C17.7152 8.79257 17.9208 8.60069 17.9208 8.36406C17.9208 8.12742 17.7152 7.93555 17.4616 7.93555H7.25662C7.003 7.93555 6.79736 8.12742 6.79736 8.36406C6.79736 8.60069 7.003 8.79257 7.25662 8.79257Z" fill="#EA7A3A"/>
<path d="M7.25662 11.1412H17.4616C17.5834 11.1412 17.7002 11.0961 17.7863 11.0157C17.8724 10.9354 17.9208 10.8263 17.9208 10.7127C17.9208 10.5991 17.8724 10.49 17.7863 10.4097C17.7002 10.3293 17.5834 10.2842 17.4616 10.2842H7.25662C7.003 10.2842 6.79736 10.4761 6.79736 10.7127C6.80228 10.9474 7.00505 11.1366 7.25662 11.1412Z" fill="#EA7A3A"/>
<path d="M7.25662 13.5494H17.4616C17.5834 13.5494 17.7002 13.5043 17.7863 13.4239C17.8724 13.3436 17.9208 13.2345 17.9208 13.1209C17.9208 13.0073 17.8724 12.8982 17.7863 12.8179C17.7002 12.7375 17.5834 12.6924 17.4616 12.6924H7.25662C7.00505 12.697 6.80229 12.8862 6.79736 13.1209C6.79736 13.2345 6.84575 13.3436 6.93186 13.4239C7.01817 13.5043 7.13483 13.5494 7.25662 13.5494Z" fill="#EA7A3A"/>
<path d="M12.3631 15.0742H7.25613C7.00456 15.0788 6.8018 15.268 6.79688 15.5027C6.79688 15.6164 6.84526 15.7254 6.93137 15.8057C7.01769 15.8861 7.13435 15.9312 7.25613 15.9312H12.3631C12.4849 15.9312 12.6018 15.8861 12.6879 15.8057C12.774 15.7254 12.8224 15.6164 12.8224 15.5027C12.8224 15.3891 12.774 15.2801 12.6879 15.1997C12.6018 15.1194 12.4849 15.0742 12.3631 15.0742Z" fill="#EA7A3A"/>
<path d="M12.3631 17.4575H7.25613C7.00252 17.4575 6.79688 17.6492 6.79688 17.886C6.79688 18.1227 7.00252 18.3145 7.25613 18.3145H12.3631C12.6167 18.3145 12.8224 18.1227 12.8224 17.886C12.8224 17.6492 12.6167 17.4575 12.3631 17.4575Z" fill="#EA7A3A"/>
<path d="M7.25662 6.41024H9.81019C9.93198 6.41024 10.0488 6.3651 10.135 6.28475C10.2211 6.20441 10.2695 6.09536 10.2695 5.98173C10.2695 5.8681 10.2211 5.75925 10.135 5.67872C10.0488 5.59837 9.93198 5.55322 9.81019 5.55322H7.25662C7.00505 5.55781 6.80229 5.74701 6.79736 5.98173C6.79736 6.09536 6.84575 6.20441 6.93186 6.28475C7.01817 6.3651 7.13483 6.41024 7.25662 6.41024Z" fill="#EA7A3A"/>
<path d="M21.3282 18.7855C21.1466 18.621 20.8577 18.621 20.676 18.7855L18.4349 20.8852C18.2775 21.0541 18.2861 21.3076 18.4544 21.4671C18.6229 21.6265 18.8946 21.6382 19.0779 21.4935L21.3282 19.3938C21.4152 19.3135 21.4642 19.2039 21.4642 19.0897C21.4642 18.9755 21.4152 18.8658 21.3282 18.7855Z" fill="#EA7A3A"/>
<path d="M21.5394 21.1852C21.5394 21.4597 21.3009 21.6821 21.0068 21.6821C20.7126 21.6821 20.4741 21.4597 20.4741 21.1852C20.4741 20.9106 20.7126 20.688 21.0068 20.688C21.3009 20.688 21.5394 20.9107 21.5394 21.1852Z" fill="#EA7A3A"/>
<path d="M19.1331 19.437C19.3348 19.244 19.3348 18.936 19.1331 18.743C19.0345 18.6475 18.8985 18.5938 18.7565 18.5938C18.6144 18.5938 18.4784 18.6475 18.3798 18.743C18.1781 18.936 18.1781 19.244 18.3798 19.437C18.4784 19.5325 18.6144 19.5862 18.7565 19.5862C18.8985 19.5862 19.0345 19.5325 19.1331 19.437Z" fill="#EA7A3A"/>
<path d="M20.4741 16.3434V7.10469C20.4735 6.78407 20.3384 6.47647 20.0975 6.24767L16.3408 2.7425C16.2971 2.70558 16.251 2.67134 16.203 2.63958C16.1585 1.92644 15.8237 1.2561 15.2671 0.765394C14.7106 0.274688 13.9742 0.000979454 13.2086 0H3.00365C2.20632 0.00229559 1.44217 0.299385 0.879149 0.826414C0.316126 1.35326 0 2.06699 0 2.81093V17.0889C0 17.8331 0.316147 18.5466 0.879149 19.0736C1.44217 19.6005 2.20627 19.8977 3.00365 19.9H4.2988C4.40603 20.561 4.76319 21.1643 5.3057 21.6013C5.84799 22.0382 6.53998 22.2798 7.25631 22.2825H16.4414C17.2154 23.3685 18.526 24.0147 19.9236 23.9997C21.3211 23.9846 22.6154 23.3101 23.3621 22.2078C24.1088 21.1054 24.2062 19.7252 23.6213 18.541C23.0361 17.3567 21.848 16.5295 20.4647 16.3434L20.4741 16.3434ZM18.9034 6.35051H16.5978C16.3938 6.3419 16.2304 6.18944 16.2212 5.99909V3.84792L18.9034 6.35051ZM0.918871 17.0888V2.81077C0.918871 2.29406 1.13825 1.7984 1.52903 1.43228C1.9198 1.06594 2.45022 0.859157 3.004 0.856855H13.209C13.6842 0.85609 14.1455 1.00703 14.5164 1.28441C14.8873 1.56199 15.1454 1.94936 15.2479 2.38228H7.25688C6.45872 2.38458 5.69378 2.68147 5.12934 3.20811C4.5649 3.73495 4.24673 4.44849 4.24426 5.19341V19.0429H3.00426C2.45048 19.0406 1.9201 18.8336 1.52929 18.4675C1.13851 18.1013 0.919134 17.6054 0.919134 17.0888L0.918871 17.0888ZM7.25662 21.4253C6.70367 21.423 6.17366 21.2178 5.78164 20.8535C5.38984 20.4895 5.16739 19.9959 5.16246 19.4798V5.19348C5.16492 4.67584 5.38634 4.18019 5.77854 3.81422C6.17076 3.44826 6.70199 3.24168 7.25656 3.23938H15.3027V5.99908C15.3075 6.31817 15.4454 6.6229 15.6874 6.84866C15.9293 7.07443 16.2559 7.20314 16.5979 7.20754H19.5372V16.2832C18.5032 16.3564 17.5365 16.7905 16.8302 17.4989C16.1237 18.2072 15.7292 19.1379 15.7253 20.1055C15.73 20.5447 15.817 20.9798 15.9824 21.3911L7.25662 21.4253ZM19.8772 23.1394C19.0245 23.1394 18.2069 22.8233 17.6039 22.2608C17.0012 21.6984 16.6624 20.9355 16.6624 20.1398C16.6624 19.3441 17.0011 18.5813 17.6039 18.0188C18.2069 17.4562 19.0245 17.1402 19.8772 17.1402C20.7297 17.1402 21.5473 17.4562 22.1503 18.0188C22.7533 18.5812 23.092 19.3441 23.092 20.1398C23.092 20.9355 22.7533 21.6983 22.1503 22.2608C21.5474 22.8234 20.7297 23.1394 19.8772 23.1394Z" fill="#673275"/>
</svg>
