<svg width="24" height="24" viewBox="0 0 24 24" fill="none" xmlns="http://www.w3.org/2000/svg">
<path d="M22.4121 23.0787H23.0787V22.4121V1.58823V0.921567H22.4121H1.58823H0.921568V1.58823V22.4121V23.0787H1.58823H22.4121ZM0.793967 0.666667H23.206C23.2766 0.666667 23.3333 0.723441 23.3333 0.793965V23.206C23.3333 23.2766 23.2766 23.3333 23.206 23.3333H0.793967C0.723444 23.3333 0.666667 23.2766 0.666667 23.206V0.793965C0.666667 0.723445 0.723443 0.666667 0.793967 0.666667Z" fill="#673275" stroke="#673275" stroke-width="1.33333"/>
<path d="M10.0461 8.46444L9.57473 7.99305C9.525 8.04278 9.44478 8.04283 9.39506 7.99354C9.39498 7.99346 9.3949 7.99338 9.39482 7.9933L8.7147 7.31318L7.57663 6.17511V7.78458V16.4012C7.57663 16.4714 7.51949 16.5285 7.44933 16.5285C7.37861 16.5285 7.32166 16.4712 7.32166 16.4012V7.78496V6.17487L6.18347 7.31369L5.50324 7.99428L5.50278 7.99474C5.47903 8.01855 5.44721 8.0316 5.41425 8.03154H5.41308C5.36209 8.03154 5.31547 8.00072 5.29558 7.95268L5.29547 7.95241C5.2759 7.90524 5.28662 7.85048 5.32314 7.81396L5.32319 7.81391L7.3501 5.78662C7.40809 5.7355 7.49561 5.73674 7.55216 5.7903L7.5526 5.79072L9.57473 7.81285C9.57484 7.81295 9.57494 7.81306 9.57505 7.81317C9.62424 7.86294 9.62418 7.94354 9.57446 7.99332L10.0461 8.46444ZM10.0461 8.46444C9.73632 8.77427 9.23446 8.77464 8.92426 8.46555L10.0472 7.34256C10.356 7.65275 10.3556 8.15461 10.0461 8.46444Z" fill="#EA7A3A" stroke="#EA7A3A" stroke-width="1.33333"/>
<path d="M14.4248 7.99337C14.3751 7.94362 14.375 7.86305 14.4242 7.81325C14.4243 7.81314 14.4244 7.81302 14.4245 7.81291L16.46 5.77783L16.4606 5.7772C16.4839 5.75386 16.5158 5.7404 16.5499 5.7404C16.5845 5.7404 16.6164 5.75398 16.6396 5.7772L17.7783 6.91867V6.91591L18.676 7.81395L18.6761 7.81403C18.7259 7.86391 18.7259 7.94441 18.6761 7.99424C18.6262 8.0441 18.5457 8.04409 18.4959 7.99425L17.8158 7.31378L16.6776 6.17496V7.78505V16.4013C16.6776 16.4713 16.6206 16.5286 16.5499 16.5286C16.4797 16.5286 16.4226 16.4715 16.4226 16.4013V7.78468V6.1752L15.2845 7.31327L14.6044 7.9934C14.6043 7.99348 14.6042 7.99356 14.6042 7.99363C14.5545 8.04288 14.4743 8.04288 14.4245 7.9931L13.9531 8.46449L14.4248 7.99337Z" fill="#EA7A3A" stroke="#EA7A3A" stroke-width="1.33333"/>
<path d="M5.60195 19.297H18.3957C18.4663 19.297 18.5234 19.3542 18.5234 19.4247C18.5234 19.4947 18.4665 19.552 18.3957 19.552H5.60195C5.53123 19.552 5.47428 19.4947 5.47428 19.4247C5.47428 19.3542 5.53143 19.297 5.60195 19.297Z" fill="#EA7A3A" stroke="#EA7A3A" stroke-width="1.33333"/>
</svg>
