<svg width="24" height="24" viewBox="0 0 24 24" fill="none" xmlns="http://www.w3.org/2000/svg">
<path d="M21.5594 10.5418L22.3123 10.3611C22.2434 10.0742 22.149 9.79201 22.0317 9.52295L21.3218 9.83297C21.4217 10.0602 21.5013 10.2987 21.5594 10.5418Z" fill="#EA7A3A"/>
<path d="M21.6771 11.5329V11.613C21.6771 13.7003 20.1852 15.4659 18.1289 15.8118L18.2575 16.5757C20.6872 16.1665 22.4513 14.0792 22.4513 11.6129V11.5327C22.4513 11.4216 22.4475 11.3108 22.4404 11.2002L21.6677 11.2517C21.674 11.345 21.6771 11.439 21.6771 11.5327L21.6771 11.5329Z" fill="#EA7A3A"/>
<path d="M22.4753 7.3196L20.2115 4.60368L21.4734 2.39533C21.6066 2.16151 21.6775 1.89555 21.6775 1.62701V1.54839C21.6775 0.694518 20.9829 0 20.1291 0C19.6143 0 19.3409 0.312788 19.1598 0.519462C18.9909 0.711803 18.9237 0.774185 18.773 0.774185C18.622 0.774185 18.5551 0.711798 18.3859 0.519117C18.2048 0.312434 17.9316 8.81776e-06 17.4172 8.81776e-06C16.9031 8.81776e-06 16.6298 0.312796 16.4487 0.519471C16.2806 0.711812 16.2132 0.774194 16.063 0.774194C15.9128 0.774194 15.8458 0.711807 15.6778 0.519471C15.497 0.312788 15.2238 8.81776e-06 14.7097 8.81776e-06C13.8558 8.81776e-06 13.1613 0.694527 13.1613 1.5484V1.62702C13.1613 1.89574 13.2322 2.16153 13.3652 2.39498L14.6271 4.60334L13.7452 5.66128C13.1888 5.508 12.605 5.41934 12 5.41934C8.37134 5.41934 5.41936 8.37132 5.41936 12C5.41936 13.2781 5.79142 14.4684 6.42461 15.4795L5.41936 16.485L5.05628 16.1219L0.898109 19.5864C0.327506 20.0616 0 20.7608 0 21.5039C0 22.8802 1.11979 24 2.49609 24C3.23936 24 3.93839 23.6725 4.41379 23.1022L7.87829 18.9441L7.51504 18.5807L8.5203 17.5754C9.53157 18.2085 10.7219 18.5807 12 18.5807C13.1385 18.5807 14.2103 18.2896 15.1452 17.7786C15.8779 18.0499 16.6409 18.1935 17.4194 18.1935C21.048 18.1935 24 15.2416 24 11.6129V11.5327C24 9.99676 23.4584 8.50057 22.4753 7.3196H22.4753ZM13.9353 1.62684V1.54821C13.9353 1.1212 14.2825 0.774017 14.7095 0.774017C14.8597 0.774017 14.9267 0.836404 15.0947 1.02874C15.2755 1.23542 15.5487 1.5482 16.0628 1.5482C16.5769 1.5482 16.8501 1.23541 17.0313 1.02874C17.1998 0.836399 17.2666 0.774017 17.417 0.774017C17.5675 0.774017 17.6346 0.836404 17.8037 1.02874C17.9848 1.23542 18.2581 1.5482 18.7728 1.5482C19.2873 1.5482 19.5607 1.23576 19.7418 1.02909C19.911 0.836408 19.9778 0.774026 20.1289 0.774026C20.5559 0.774026 20.9031 1.12121 20.9031 1.54822V1.62685C20.9031 1.76112 20.8678 1.89401 20.8009 2.01083L19.5173 4.2579H15.3211L14.0371 2.01083C13.9706 1.89436 13.9353 1.76111 13.9353 1.62684ZM3.8186 22.6057C3.49113 22.9997 3.00831 23.2254 2.49593 23.2254C1.54632 23.2254 0.77403 22.4531 0.77403 21.5035C0.77403 20.991 0.999723 20.5087 1.39374 20.1809L5.00843 17.1684L6.83124 18.9912L3.8186 22.6057ZM6.96758 18.0331L5.96648 17.032L6.87738 16.1211C7.17427 16.4896 7.50987 16.8248 7.87848 17.1222L6.96758 18.0331ZM6.19339 11.9997C6.19339 8.79804 8.79817 6.19326 11.9998 6.19326C15.2015 6.19326 17.8063 8.79804 17.8063 11.9997C17.8063 15.2014 15.2015 17.8062 11.9998 17.8062C8.79817 17.8062 6.19339 15.2014 6.19339 11.9997ZM23.2257 11.6126C23.2257 14.8143 20.6209 17.4191 17.4192 17.4191C16.9303 17.4191 16.4487 17.3513 15.9776 17.2298C17.5559 16.0262 18.5805 14.1331 18.5805 11.9998C18.5805 9.26856 16.907 6.92156 14.5322 5.92749L15.2782 5.03217H19.5603L21.8798 7.81493C22.748 8.857 23.2257 10.1774 23.2257 11.5326V11.6126Z" fill="#673275"/>
<path d="M12 6.96777C9.22537 6.96777 6.96777 9.22537 6.96777 12C6.96777 14.7747 9.22537 17.0323 12 17.0323C14.7747 17.0323 17.0323 14.7747 17.0323 12C17.0323 9.22537 14.7747 6.96777 12 6.96777ZM12 16.2581C9.65224 16.2581 7.74197 14.3478 7.74197 12C7.74197 9.65224 9.65224 7.74197 12 7.74197C14.3478 7.74197 16.2581 9.65224 16.2581 12C16.2581 14.3478 14.3478 16.2581 12 16.2581Z" fill="#EA7A3A"/>
<path d="M14.7095 11.6133H15.4837V12.3875H14.7095V11.6133Z" fill="#EA7A3A"/>
<path d="M8.51611 11.6133H9.29031V12.3875H8.51611V11.6133Z" fill="#EA7A3A"/>
<path d="M2.32253 22.0648C2.32253 22.2786 2.1492 22.4519 1.93544 22.4519C1.72167 22.4519 1.54834 22.2786 1.54834 22.0648C1.54834 21.8511 1.72167 21.6777 1.93544 21.6777C2.1492 21.6777 2.32253 21.8511 2.32253 22.0648Z" fill="#EA7A3A"/>
</svg>
