<svg width="124" height="125" viewBox="0 0 124 125" fill="none" xmlns="http://www.w3.org/2000/svg">
<path d="M101.006 3.77118C73.7006 1.90244 46.2993 1.90244 18.9937 3.77118C14.9252 4.06516 11.0987 5.81438 8.21435 8.69872C5.33002 11.5831 3.5808 15.4096 3.28682 19.4781C1.41742 46.783 1.41742 74.1838 3.28682 101.489C3.58042 105.558 5.32972 109.385 8.21448 112.27C11.0992 115.155 14.9265 116.904 18.9956 117.197C46.2997 119.07 73.7001 119.07 101.004 117.197C105.073 116.904 108.901 115.155 111.785 112.27C114.67 109.385 116.419 105.558 116.713 101.489C118.582 74.1844 118.582 46.7842 116.713 19.4799C116.419 15.4108 114.67 11.5836 111.785 8.69885C108.901 5.81408 105.075 4.06479 101.006 3.77118Z" fill="#F5E8DD" fill-opacity="0.5"/>
<path d="M93.75 38.6483V82.3245C93.7336 83.3726 93.3099 84.3732 92.5687 85.1144C91.8274 85.8556 90.8269 86.2793 89.7788 86.2957H30.2213C29.1722 86.2822 28.17 85.8594 27.4282 85.1176C26.6864 84.3757 26.2636 83.3735 26.25 82.3245V38.6483C26.253 37.5959 26.6723 36.5875 27.4164 35.8434C28.1605 35.0993 29.1689 34.68 30.2213 34.677H89.7788C90.8311 34.68 91.8395 35.0993 92.5836 35.8434C93.3277 36.5875 93.747 37.5959 93.75 38.6483Z" fill="#EA7A3A"/>
<path d="M35.3625 81.1526C34.9891 80.7887 34.693 80.3532 34.4916 79.8722C34.2903 79.3913 34.1879 78.8747 34.1906 78.3532V34.677H30.2213C29.1689 34.68 28.1605 35.0993 27.4164 35.8434C26.6723 36.5875 26.253 37.5959 26.25 38.6483V82.3245C26.2716 83.371 26.6969 84.3686 27.437 85.1087C28.1771 85.8489 29.1748 86.2742 30.2213 86.2957H89.7788C90.8297 86.2884 91.8355 85.8676 92.5787 85.1245C93.3219 84.3813 93.7426 83.3755 93.75 82.3245H38.1619C37.6405 82.3272 37.1239 82.2248 36.6429 82.0235C36.1619 81.8222 35.7265 81.526 35.3625 81.1526Z" fill="#D16D34"/>
<path d="M93.75 38.6465V46.1502L64.7644 67.8308C63.3754 68.8385 61.7026 69.3795 59.9866 69.3761C58.2707 69.3728 56.6 68.8251 55.215 67.8121L26.25 46.1483V38.6446C26.253 37.5923 26.6723 36.5839 27.4164 35.8398C28.1605 35.0957 29.1689 34.6763 30.2213 34.6733H89.7788C90.8314 34.6763 91.8401 35.0959 92.5842 35.8404C93.3284 36.585 93.7475 37.5938 93.75 38.6465Z" fill="#D16D34"/>
<path d="M93.75 38.6465V41.2077L62.3813 64.6546C61.6967 65.1756 60.8602 65.4577 60 65.4577C59.1398 65.4577 58.3033 65.1756 57.6187 64.6546L26.25 41.2058V38.6446C26.253 37.5923 26.6723 36.5839 27.4164 35.8398C28.1605 35.0957 29.1689 34.6763 30.2213 34.6733H89.7788C90.8314 34.6763 91.8401 35.0959 92.5842 35.8404C93.3284 36.585 93.7475 37.5938 93.75 38.6465Z" fill="#EA7A3A"/>
<g clip-path="url(#clip0_39_35169)">
<path fill-rule="evenodd" clip-rule="evenodd" d="M108 92.4844C99.175 92.4844 92 99.6594 92 108.484C92 117.309 99.175 124.484 108 124.484C116.825 124.484 124 117.309 124 108.484C124 99.6594 116.825 92.4844 108 92.4844Z" fill="#4BAE4F"/>
<path fill-rule="evenodd" clip-rule="evenodd" d="M115.737 103.091C116.125 103.478 116.125 104.116 115.737 104.503L106.362 113.878C106.169 114.072 105.912 114.172 105.656 114.172C105.4 114.172 105.144 114.072 104.95 113.878L100.262 109.191C99.8748 108.803 99.8748 108.166 100.262 107.778C100.65 107.391 101.287 107.391 101.675 107.778L105.656 111.759L114.325 103.091C114.712 102.697 115.35 102.697 115.737 103.091Z" fill="white"/>
</g>
<defs>
<clipPath id="clip0_39_35169">
<rect width="32" height="32" fill="white" transform="translate(92 92.4844)"/>
</clipPath>
</defs>
</svg>
