<svg width="18" height="20" viewBox="0 0 18 20" fill="none" xmlns="http://www.w3.org/2000/svg">
<path d="M4.11247 17.0858C4.31847 17.3162 4.61406 17.4463 4.9232 17.443C5.34986 17.4221 5.75945 17.2685 6.09459 17.0035C6.45174 16.7428 6.84459 16.0464 7.22308 15.1035C7.83373 14.9321 8.48027 14.7749 9.07671 14.6536C9.69663 15.2736 10.4833 15.7004 11.3411 15.8822C11.5415 15.906 11.7445 15.8749 11.9288 15.7926C12.1129 15.7102 12.2715 15.5794 12.3874 15.4143C12.4914 15.2567 12.5507 15.0737 12.5588 14.8851C12.5671 14.6963 12.5239 14.509 12.4338 14.3428C12.2875 14.0678 11.8874 13.6035 10.848 13.5963V13.5965C10.3409 13.6168 9.83593 13.6753 9.33736 13.7714C8.87927 13.2855 8.50507 12.7266 8.23021 12.1179C8.36589 11.6679 8.49807 11.2037 8.63024 10.7357L8.76593 10.2714C8.86685 9.94473 8.89969 9.60064 8.86239 9.26072C8.75524 8.50721 8.26961 8.21431 7.84802 8.24652C7.31582 8.29291 6.80161 8.84297 6.85153 9.80725L6.85169 9.80709C6.88709 10.6081 7.05609 11.3977 7.35169 12.1429C7.07666 13.0393 6.82667 13.7964 6.59818 14.4073C5.52675 14.7394 4.58381 15.1215 4.25173 15.4787C4.02916 15.6791 3.89108 15.9564 3.86525 16.2547C3.83942 16.553 3.92775 16.85 4.11238 17.0858L4.11247 17.0858ZM10.8447 14.4072C11.4948 14.4072 11.6697 14.6466 11.709 14.718V14.7178C11.7524 14.7865 11.7524 14.8742 11.709 14.943C11.6402 15.0298 11.5286 15.0713 11.4197 15.0501C10.9512 14.9594 10.5115 14.7572 10.1376 14.4608C10.3707 14.4286 10.6057 14.4106 10.8412 14.4072L10.8447 14.4072ZM7.91965 9.0501C7.93751 9.0501 8.01611 9.11802 8.04465 9.33581C8.06666 9.56445 8.04242 9.79516 7.97322 10.0144L7.83754 10.4894C7.81969 10.5536 7.79832 10.6215 7.78047 10.6893C7.72801 10.3846 7.6958 10.0769 7.684 9.76791C7.64829 9.28579 7.83404 9.0715 7.91615 9.06432L7.91965 9.0501ZM7.88761 13.2142C8.04721 13.4709 8.2237 13.7167 8.41614 13.9498C8.1376 14.0106 7.8554 14.0783 7.57336 14.1497C7.68401 13.8498 7.78046 13.5356 7.88761 13.2142ZM4.85189 16.0534C5.2583 15.7598 5.71446 15.542 6.19834 15.4106C6.07239 15.7537 5.87388 16.0656 5.61605 16.3248C5.12324 16.6819 4.81597 16.6497 4.72671 16.5463C4.63758 16.4428 4.6733 16.2463 4.85187 16.0499L4.85189 16.0534Z" fill="#EA7A3A"/>
<path d="M9.82687 3.72467H9.46973V4.35316L9.82687 4.35332C9.91584 4.36273 10.005 4.33849 10.0769 4.2854C10.1912 4.15179 10.1912 3.95472 10.0769 3.82111C10.0093 3.75782 9.9195 3.72324 9.82687 3.72467Z" fill="#673275"/>
<path d="M12.0021 3.75342H11.7129V5.21052H12.0021V5.21068C12.2 5.22232 12.3942 5.15424 12.5413 5.02127C12.677 4.87714 12.747 4.68326 12.7343 4.48555C12.7481 4.29215 12.6775 4.10226 12.5404 3.96514C12.4033 3.82803 12.2134 3.7574 12.02 3.77127L12.0021 3.75342Z" fill="#673275"/>
<path d="M16.2554 2.01437V0H4.23049L0.184082 4.13918V20H16.2555V7.01429H17.8162V2.01429L16.2554 2.01437ZM4.02314 1.23216V3.09649C4.02314 3.57147 3.48743 3.92861 3.04102 3.92861H1.39098L4.02314 1.23216ZM15.5411 2.01437H6.38763V7.01437H15.5411V19.2858H0.898245V4.64294H3.0411C3.84469 4.64294 4.73751 4.00727 4.73751 3.09653V0.714367H15.5412L15.5411 2.01437ZM15.0733 4.25V4.72498H14.3089V5.73935H13.6983V3.23935H15.3304V3.72865H14.3089V4.25H15.0733ZM13.3555 4.48565H13.3554C13.3606 4.71445 13.3039 4.94022 13.1911 5.13936C13.0846 5.32909 12.9242 5.48327 12.7304 5.58214C12.5169 5.69008 12.2803 5.74397 12.0411 5.73935H11.1018V3.23935H12.0411C12.2814 3.23424 12.5194 3.28813 12.734 3.3964C12.9258 3.49525 13.0848 3.64783 13.1911 3.83582C13.3026 4.03401 13.3592 4.25836 13.3554 4.4857L13.3555 4.48565ZM10.7839 4.0392C10.7865 4.17791 10.752 4.31487 10.684 4.43572C10.6124 4.5612 10.5055 4.66308 10.3769 4.72861C10.2173 4.80769 10.0405 4.84564 9.86251 4.83926H9.46965V5.7393H8.8732V3.2393H9.86251C10.0373 3.23468 10.2107 3.27007 10.3697 3.34278C10.5004 3.40337 10.609 3.50333 10.6804 3.62849C10.7493 3.75445 10.7849 3.89573 10.7839 4.0392Z" fill="#673275"/>
</svg>
