<svg width="24" height="19" viewBox="0 0 24 19" fill="none" xmlns="http://www.w3.org/2000/svg">
<path d="M20.4891 11.8637V3.85292C20.4891 3.04711 20.1854 2.27425 19.6449 1.70447C19.1043 1.13449 18.3713 0.814453 17.6069 0.814453H2.88217C2.11767 0.814453 1.38461 1.1345 0.844176 1.70447C0.303741 2.27425 0 3.04711 0 3.85292V11.8637C0 12.6695 0.30375 13.4424 0.844176 14.0123C1.38461 14.5821 2.11767 14.9022 2.88217 14.9022H17.6069C18.3713 14.9022 19.1043 14.5821 19.6449 14.0123C20.1854 13.4424 20.4891 12.6695 20.4891 11.8637ZM1.57223 11.8637V3.85292C1.57223 3.48662 1.71021 3.13535 1.95584 2.87639C2.20147 2.61742 2.53483 2.47175 2.88227 2.47175H17.607C17.9545 2.47175 18.2877 2.61742 18.5335 2.87639C18.7791 3.13535 18.9171 3.48661 18.9171 3.85292V11.8637C18.9171 12.23 18.7791 12.5812 18.5335 12.8402C18.2877 13.0994 17.9545 13.2449 17.607 13.2449H2.88227C2.53484 13.2449 2.20147 13.0994 1.95584 12.8402C1.71021 12.5812 1.57223 12.23 1.57223 11.8637Z" fill="#673275"/>
<path d="M10.2447 3.875C9.2424 3.87423 8.28107 4.29332 7.57197 5.03996C6.86305 5.78683 6.46443 6.79997 6.46387 7.85646C6.46332 8.91315 6.86119 9.92648 7.56958 10.6739C8.27798 11.4213 9.23894 11.8414 10.2412 11.8416C11.2433 11.8418 12.2046 11.4223 12.9133 10.6752C13.6219 9.92816 14.0201 8.91483 14.0201 7.85838C14.0194 6.80268 13.6215 5.79028 12.9137 5.04347C12.2059 4.2968 11.246 3.87658 10.2447 3.875ZM10.2447 10.1815C9.65946 10.1815 9.09839 9.93641 8.68461 9.50034C8.27102 9.0641 8.03853 8.47256 8.03853 7.85557C8.03853 7.23878 8.271 6.64725 8.68461 6.211C9.09838 5.77476 9.65946 5.52969 10.2447 5.52969C10.8297 5.52969 11.3909 5.77479 11.8045 6.211C12.2183 6.64724 12.4508 7.23878 12.4508 7.85557C12.4515 8.47295 12.2194 9.06523 11.8054 9.50207C11.3917 9.93889 10.8302 10.1844 10.2447 10.1844V10.1815Z" fill="#EA7A3A"/>
<path d="M23.2146 4.40527C23.0061 4.40527 22.8063 4.49256 22.6588 4.64787C22.5113 4.80336 22.4285 5.01416 22.4285 5.23383V14.3495C22.4285 15.0089 22.1802 15.6413 21.7379 16.1076C21.2958 16.5737 20.6959 16.8358 20.0705 16.8358H4.29774C4.01701 16.8358 3.75749 16.9936 3.61713 17.25C3.47658 17.5065 3.47658 17.8223 3.61713 18.0788C3.75749 18.3351 4.01701 18.4931 4.29774 18.4931H20.0705C21.1128 18.4931 22.1126 18.0566 22.8496 17.2795C23.5865 16.5024 24.0006 15.4484 24.0006 14.3496V5.23386C24.0006 5.0142 23.9178 4.8034 23.7704 4.6479C23.6231 4.4926 23.4231 4.40527 23.2146 4.40527Z" fill="#EA7A3A"/>
</svg>
