<svg width="24" height="24" viewBox="0 0 24 24" fill="none" xmlns="http://www.w3.org/2000/svg">
<path d="M12.0001 10.8382C9.53051 10.8382 7.55469 8.83337 7.55469 6.39272C7.55469 3.92309 9.5595 1.94727 12.0001 1.94727C14.4408 1.94727 16.4456 3.95208 16.4456 6.39272C16.4456 8.83337 14.4698 10.8382 12.0001 10.8382ZM12.0001 3.08042C10.1697 3.08042 8.71683 4.56224 8.71683 6.36374C8.71683 8.16503 10.1697 9.67584 12.0001 9.67584C13.8306 9.67584 15.2835 8.19402 15.2835 6.39253C15.2835 4.59123 13.8306 3.08042 12.0001 3.08042Z" fill="#EA7A3A"/>
<path d="M20.0774 21.5884H3.92236V17.5206C3.92236 14.1501 6.65349 11.4189 10.024 11.4189H13.9754C17.3459 11.4189 20.077 14.1501 20.077 17.5206L20.0774 21.5884ZM5.08491 20.4262H18.9443V17.5206C18.9443 14.7894 16.7361 12.5811 14.0048 12.5811L10.0242 12.5813C7.29304 12.5813 5.08471 14.7894 5.08471 17.5208L5.08491 20.4262Z" fill="#EA7A3A"/>
<path d="M20.7749 24H3.22514C1.45283 24 0 22.5472 0 20.7749V3.22514C0 1.45283 1.45283 0 3.22514 0H20.7744C22.5467 0 23.9995 1.45283 23.9995 3.22514V20.7744C23.9997 22.5469 22.5469 23.9997 20.7746 23.9997L20.7749 24ZM3.22514 1.19143C2.09198 1.19143 1.16215 2.12127 1.16215 3.25442V20.8037C1.16215 21.9368 2.09198 22.8666 3.22514 22.8666H20.7744C21.9075 22.8666 22.8374 21.9368 22.8374 20.8037V3.22504C22.8374 2.09188 21.9075 1.16205 20.7744 1.16205L3.22514 1.16224V1.19143Z" fill="#673275"/>
</svg>
