<svg width="32" height="32" viewBox="0 0 32 32" fill="none" xmlns="http://www.w3.org/2000/svg">
<circle cx="16" cy="16" r="16" fill="#EA7A3A"/>
<path d="M25.9775 16.8937C25.895 16.4439 25.6271 16.0523 25.2391 15.8119C25.1155 15.7363 24.9849 15.6848 24.8544 15.6436V7.74813C24.8544 6.78315 24.0714 6 23.1098 6H12.6318C11.6702 6 10.8872 6.78299 10.8872 7.74813L10.887 15.0976H8.09494C6.94109 15.0976 6 16.0387 6 17.1959V22.0075C6 22.8627 6.50487 23.6217 7.28785 23.941C9.33126 24.7755 11.4813 25.2117 13.6757 25.2323H13.8543C15.2934 25.2323 16.7289 25.0503 18.1302 24.6966C20.1083 24.1917 21.9046 23.0068 23.182 21.3619L25.6616 18.168C25.9397 17.8074 26.0565 17.3437 25.9741 16.8939L25.9775 16.8937ZM19.9676 10.602L18.4152 9.5648C18.2984 9.48584 18.1439 9.48584 18.0272 9.5648L16.4748 10.602V6.71093H19.964V10.602H19.9676ZM11.5878 7.74814C11.5878 7.17121 12.0583 6.70065 12.6353 6.70065H15.7777V10.602C15.7777 10.8595 15.9185 11.0966 16.1486 11.2168C16.3752 11.337 16.6499 11.3267 16.8664 11.1824L18.223 10.2757L19.5795 11.1824C19.6963 11.2614 19.8302 11.2993 19.9675 11.2993C20.0808 11.2993 20.1941 11.2718 20.2972 11.2168C20.5238 11.0966 20.6681 10.8595 20.6681 10.602L20.6682 6.70065H23.11C23.6869 6.70065 24.1575 7.17117 24.1575 7.74814V15.5886C23.7899 15.6435 23.4432 15.829 23.1856 16.1278L21.307 18.3053C20.5755 19.15 19.5177 19.6378 18.4016 19.6378L12.6319 19.6376C12.2472 19.6376 11.9348 19.3251 11.9348 18.9404C11.9348 18.5558 12.2472 18.2433 12.6319 18.2433H14.5518C15.4173 18.2433 16.1246 17.5392 16.1246 16.6704C16.1246 15.8016 15.4206 15.0975 14.5518 15.0975H11.5844V7.74806L11.5878 7.74814ZM25.112 17.7387L22.6324 20.9326C21.4475 22.4576 19.7888 23.553 17.9582 24.0202C16.5604 24.3774 15.1215 24.5525 13.6859 24.5353C11.5771 24.5148 9.51325 24.0958 7.55235 23.2956C7.03382 23.0826 6.70067 22.5777 6.70067 22.0077V17.1961C6.70067 16.4268 7.32576 15.7983 8.09493 15.7983L14.555 15.798C15.0358 15.798 15.4274 16.1896 15.4274 16.6704C15.4274 17.1512 15.0358 17.5428 14.555 17.5428H12.6352C11.8658 17.5428 11.2374 18.1713 11.2374 18.9406C11.2374 19.7099 11.8658 20.3384 12.6352 20.3384H18.3978C19.72 20.3384 20.9701 19.7648 21.8321 18.7655L23.7107 16.5881C24.0026 16.248 24.4903 16.1726 24.8715 16.4095C25.0947 16.5468 25.2423 16.7632 25.287 17.0207C25.3351 17.2783 25.2699 17.5326 25.112 17.7387Z" fill="#FFF8F5"/>
</svg>
