<svg width="24" height="25" viewBox="0 0 24 25" fill="none" xmlns="http://www.w3.org/2000/svg">
<path d="M7.26022 2.5H16.7302C17.3802 2.5 17.9602 2.52003 18.4802 2.59003C21.2502 2.90003 22.0002 4.20001 22.0002 7.76001V14.08C22.0002 17.64 21.2502 18.94 18.4802 19.25C17.9602 19.32 17.3902 19.34 16.7302 19.34H7.26022C6.61022 19.34 6.03022 19.32 5.51022 19.25C2.74022 18.94 1.99023 17.64 1.99023 14.08V7.76001C1.99023 4.20001 2.74022 2.90003 5.51022 2.59003C6.03022 2.52003 6.61022 2.5 7.26022 2.5Z" stroke="#673275" stroke-width="1.5" stroke-linecap="round" stroke-linejoin="round"/>
<path d="M13.5801 8.81982H17.2601" stroke="#EA7A3A" stroke-width="1.5" stroke-linecap="round" stroke-linejoin="round"/>
<path d="M6.74023 14.6099H6.76022H17.2702" stroke="#EA7A3A" stroke-width="1.5" stroke-linecap="round" stroke-linejoin="round"/>
<path d="M7 22.5H17" stroke="#673275" stroke-width="1.5" stroke-linecap="round" stroke-linejoin="round"/>
<path d="M7.1947 8.7998H7.20368" stroke="#EA7A3A" stroke-width="2" stroke-linecap="round" stroke-linejoin="round"/>
<path d="M10.4945 8.7998H10.5035" stroke="#EA7A3A" stroke-width="2" stroke-linecap="round" stroke-linejoin="round"/>
</svg>
