<svg width="24" height="15" viewBox="0 0 24 15" fill="none" xmlns="http://www.w3.org/2000/svg">
<path d="M8.44657 8.55972C7.58624 8.55738 6.78905 8.10804 6.34132 7.37351C5.89362 6.63898 5.85973 5.72437 6.25202 4.95873C6.64408 4.19308 7.40597 3.68622 8.26372 3.62008C9.12148 3.55415 9.95188 3.93873 10.4566 4.63542C10.9612 5.33212 11.0678 6.24081 10.7377 7.03525C10.4076 7.82986 9.68844 8.39561 8.83865 8.52961C8.70889 8.54995 8.57772 8.55995 8.44657 8.55972ZM8.44657 4.96693C8.38626 4.96225 8.32571 4.96225 8.26562 4.96693C7.87777 4.99849 7.53385 5.229 7.35783 5.57619C7.1818 5.92313 7.19839 6.33669 7.40202 6.66843C7.60564 6.99994 7.96684 7.20216 8.35607 7.20216C8.74509 7.20216 9.10652 6.99994 9.30994 6.66843C9.51357 6.33669 9.5304 5.92313 9.35436 5.57619C9.17809 5.22902 8.83442 4.99851 8.44657 4.96693Z" fill="#673275"/>
<path d="M10.1494 6.84952L10.7299 5.64111L14.7145 7.55532L14.134 8.76373L10.1494 6.84952Z" fill="#673275"/>
<path d="M3.44385 10.3441L6.32288 6.5166L7.3943 7.32247L4.51526 11.15L3.44385 10.3441Z" fill="#673275"/>
<path d="M16.7993 6.55366L20.3631 3.4502L21.2436 4.46134L17.6798 7.56481L16.7993 6.55366Z" fill="#673275"/>
<path d="M16.1823 10.9798C15.5735 10.98 14.9861 10.7549 14.5334 10.3476C14.0808 9.94039 13.7951 9.37977 13.7313 8.77428C13.6675 8.16879 13.8304 7.56114 14.1881 7.06858C14.6915 6.37188 15.521 5.98759 16.3778 6.05372C17.2343 6.11965 17.9951 6.62696 18.3853 7.39261C18.7757 8.15801 18.7395 9.07167 18.2897 9.80386C17.8401 10.5361 17.0417 10.9817 16.1823 10.9798ZM16.1823 7.39021C15.8214 7.38974 15.4821 7.56321 15.2708 7.85615C15.0716 8.13131 15.0073 8.48151 15.0957 8.80954C15.1843 9.13754 15.416 9.40803 15.7265 9.54574C16.0369 9.68346 16.393 9.67362 16.6955 9.51909C16.998 9.36456 17.2145 9.08168 17.2849 8.74949C17.355 8.41705 17.2715 8.07081 17.0576 7.80711C16.8437 7.54317 16.522 7.39004 16.1823 7.39028V7.39021Z" fill="#EA7A3A"/>
<path d="M2.46055 14.1803C1.852 14.1787 1.26542 13.9522 0.813744 13.5444C0.36207 13.1365 0.0770631 12.5761 0.0135036 11.9711C-0.0500859 11.3658 0.112392 10.7584 0.469618 10.2656C0.952617 9.59722 1.73746 9.21407 2.56176 9.24489C3.38588 9.27575 4.14003 9.71644 4.57137 10.4192C5.00293 11.1219 5.05483 11.9939 4.7093 12.743C4.364 13.4918 3.66733 14.0185 2.85261 14.1466C2.72309 14.1681 2.59193 14.1794 2.46055 14.1803ZM1.55557 11.0532C1.38023 11.2952 1.30823 11.5968 1.35522 11.8918C1.40244 12.1866 1.56469 12.4508 1.80666 12.6262C2.04863 12.8015 2.3502 12.8735 2.64526 12.8263C2.94006 12.7791 3.20424 12.6166 3.37961 12.3746C3.55471 12.1327 3.62648 11.8311 3.57926 11.536C3.53203 11.2412 3.36955 10.9771 3.12758 10.8019C2.88632 10.6252 2.58427 10.5522 2.28898 10.5995C1.99371 10.6467 1.72974 10.8101 1.55557 11.0532Z" fill="#EA7A3A"/>
<path d="M21.528 4.93362C20.9192 4.93385 20.3318 4.70872 19.8791 4.3015C19.4265 3.89401 19.1408 3.33362 19.077 2.72813C19.0132 2.12264 19.1762 1.51499 19.5339 1.02243C20.0372 0.325731 20.8667 -0.0587988 21.7232 0.00733424C22.58 0.0734973 23.3408 0.580807 23.731 1.34645C24.1214 2.11186 24.0852 3.02552 23.6354 3.75771C23.1858 4.4899 22.3874 4.93554 21.528 4.93362ZM20.6198 1.80981C20.4444 2.05178 20.3724 2.35336 20.4194 2.64841C20.4666 2.94345 20.6289 3.20763 20.8709 3.38276C21.1128 3.5581 21.4144 3.6301 21.7095 3.58288C22.0043 3.53566 22.2684 3.37341 22.4438 3.13144C22.6189 2.88947 22.6907 2.58766 22.6435 2.29284C22.5962 1.9978 22.4337 1.73362 22.1918 1.55849C21.9505 1.38175 21.6487 1.30881 21.3534 1.35604C21.0579 1.40326 20.7939 1.56667 20.6198 1.80981Z" fill="#673275"/>
</svg>
