<svg width="24" height="24" viewBox="0 0 24 24" fill="none" xmlns="http://www.w3.org/2000/svg">
<path d="M22.2857 0C23.2324 0 24 0.767608 24 1.71429V22.2857C24 23.2324 23.2324 24 22.2857 24H1.71429C0.767608 24 0 23.2324 0 22.2857V17.1429C0 16.1962 0.767608 15.4286 1.71429 15.4286H3.30593L1.71448 14.5102C0.894661 14.0369 0.613763 12.9884 1.0871 12.1684L3.65853 7.71448C4.13187 6.89466 5.18033 6.61376 6.0002 7.0871L8.57143 8.57143L7.0871 6.0002C6.61376 5.18038 6.89463 4.13187 7.71448 3.65853L12.1684 1.0871C12.9884 0.613758 14.0369 0.894627 14.5102 1.71448L15.4286 3.30519V1.71433C15.4286 0.767657 16.1962 4.89527e-05 17.1429 4.89527e-05L22.2857 0ZM6.27527 17.1429H1.71443V22.2857H15.1828L6.27527 17.1429ZM22.2857 1.71429H17.1429V22.2857H22.2857V1.71429ZM5.14286 8.57143L2.57143 13.0253L15.4286 20.4467L10.2857 11.5403L5.14286 8.57143ZM13.0251 2.57143L8.57123 5.14286L15.4284 17.0194V6.73371L13.0251 2.57143Z" fill="#673275"/>
<path d="M15.4286 3.30519V22.2855C15.4286 23.2322 15.5 24 15.4286 23.9998H1.71429C0.767608 23.9998 0 23.2322 0 22.2855V17.1426C0 16.196 0.767608 15.4283 1.71429 15.4283H3.30593L1.71448 14.51C0.894661 14.0366 0.613763 12.9882 1.0871 12.1682L3.65853 7.71426C4.13187 6.89444 5.18033 6.61354 6.0002 7.08688L8.57143 8.5712L7.0871 5.99997C6.61376 5.18015 6.89463 4.13165 7.71448 3.65831L12.1684 1.08688C12.9884 0.613535 14.0369 0.894403 14.5102 1.71426L15.4286 3.30519V3.5C15.4286 5.09086 15.4286 3.30519 15.4286 3.30519ZM6.27527 17.1426H1.71443V22.2855H15.1828L6.27527 17.1426ZM5.14286 8.5712L2.57143 13.0251L15.4286 20.4465L10.2857 11.5401L5.14286 8.5712ZM13.0251 2.5712L8.57123 5.14263L15.4284 17.0192V6.73349L13.0251 2.5712Z" fill="#EA7A3A"/>
<path d="M20.5712 19.7141C20.5712 19.2407 20.1874 18.8569 19.7141 18.8569C19.2407 18.8569 18.8569 19.2407 18.8569 19.7141C18.8569 20.1874 19.2407 20.5712 19.7141 20.5712C20.1874 20.5712 20.5712 20.1874 20.5712 19.7141Z" fill="#EA7A3A"/>
</svg>
