<svg width="24" height="24" viewBox="0 0 24 24" fill="none" xmlns="http://www.w3.org/2000/svg">
<path d="M14.2024 22.1395C14.2024 22.139 14.2023 22.1385 14.202 22.138L13.924 21.639C13.0843 20.132 10.9165 20.132 10.0768 21.639L9.79839 22.1387C9.59948 22.4954 9.27213 22.7556 8.88823 22.8623C8.50433 22.969 8.09527 22.9134 7.75089 22.7077L5.15139 21.153C4.80688 20.9468 4.5555 20.6072 4.45254 20.2089C4.34959 19.8107 4.40349 19.3863 4.60239 19.0292L4.94061 18.4222C5.77621 16.9224 4.69191 15.0771 2.9751 15.0771H2.40039C2.00257 15.0771 1.62104 14.9133 1.33973 14.6217C1.05843 14.3301 0.900391 13.9347 0.900391 13.5223V10.4128C0.900391 10.0005 1.05843 9.60504 1.33973 9.31347C1.62104 9.0219 2.00257 8.8581 2.40039 8.8581H2.9751C4.69192 8.8581 5.77621 7.01272 4.94061 5.51298L4.60239 4.90594C4.50367 4.72906 4.43956 4.53375 4.41372 4.33117C4.38789 4.12858 4.40083 3.92271 4.45182 3.72532C4.50281 3.52792 4.59084 3.34289 4.71088 3.18079C4.83092 3.01869 4.98061 2.8827 5.15139 2.78061L7.74939 1.22587C8.09391 1.01971 8.50333 0.963839 8.88759 1.07055C9.27185 1.17727 9.59947 1.43782 9.79839 1.79491L10.0354 2.2204C10.8931 3.76043 13.1083 3.76075 13.9664 2.22097L14.2039 1.79491C14.4028 1.43825 14.7302 1.17799 15.1141 1.0713C15.498 0.964608 15.907 1.0202 16.2514 1.22587L18.8509 2.78061C19.195 2.98678 19.4461 3.32608 19.549 3.72399C19.652 4.1219 19.5983 4.54588 19.3999 4.90283L19.0599 5.51307C18.2244 7.01281 19.3087 8.8581 21.0255 8.8581H21.6004C21.9982 8.8581 22.3797 9.0219 22.6611 9.31347C22.9424 9.60504 23.1004 10.0005 23.1004 10.4128V13.5223C23.1004 13.9347 22.9424 14.3301 22.6611 14.6217C22.3797 14.9133 21.9982 15.0771 21.6004 15.0771H21.0249C19.3083 15.0771 18.224 16.9221 19.0593 18.4218L19.3984 19.0308C19.5973 19.3879 19.6512 19.8122 19.5482 20.2105C19.4453 20.6088 19.1939 20.9484 18.8494 21.1545L16.2514 22.7093C15.9069 22.9154 15.4975 22.9713 15.1132 22.8646C14.7292 22.758 14.4017 22.4977 14.2028 22.1409C14.2025 22.1405 14.2024 22.14 14.2024 22.1395V22.1395Z" stroke="#673275" stroke-width="1.5" stroke-linejoin="round"/>
<circle cx="12" cy="12" r="3.75" stroke="url(#paint0_linear_78_6237)" stroke-width="1.5"/>
<defs>
<linearGradient id="paint0_linear_78_6237" x1="12" y1="-3.26786" x2="1.51861" y2="1.15881" gradientUnits="userSpaceOnUse">
<stop stop-color="#F97316"/>
<stop offset="1" stop-color="#FF9900"/>
</linearGradient>
</defs>
</svg>
