<svg width="24" height="24" viewBox="0 0 24 24" fill="none" xmlns="http://www.w3.org/2000/svg">
<path d="M11.186 1.51112H21.3661C21.9876 1.51112 22.5202 2.0148 22.5202 2.66668V12.8593C22.5202 13.4816 22.0171 14.0149 21.3661 14.0149V15.4964C22.8162 15.4964 23.9998 14.3113 23.9998 12.8593V2.63705C23.9998 1.18514 22.8162 0 21.3661 0H11.186C9.73592 0 8.55225 1.18508 8.55225 2.63705H10.0319C10.0319 2.01493 10.535 1.51128 11.186 1.51128V1.51112Z" fill="#673275"/>
<path d="M6.89502 5.74809H17.075C17.6966 5.74809 18.2292 6.25177 18.2292 6.90365V17.0963C18.2292 17.7186 17.7261 18.2518 17.075 18.2518V19.7333C18.5252 19.7333 19.7088 18.5483 19.7088 17.0963V6.90365C19.7088 5.45174 18.5252 4.2666 17.075 4.2666H6.89502C5.4449 4.2666 4.26123 5.45169 4.26123 6.90365H5.74089C5.74089 6.28153 6.24394 5.74809 6.89502 5.74809Z" fill="#EA7A3A"/>
<path d="M2.63379 23.9999H12.8138C14.2639 23.9999 15.4476 22.8149 15.4476 21.3629V11.1703C15.4476 9.71834 14.264 8.5332 12.8138 8.5332H2.63379C1.18367 8.5332 0 9.71829 0 11.1703V21.3629C0 22.8146 1.18383 23.9999 2.63379 23.9999ZM1.47965 11.1703C1.47965 10.5479 1.98271 10.0147 2.63379 10.0147H12.8138C13.4354 10.0147 13.9679 10.5184 13.9679 11.1703V21.3629C13.9679 21.9852 13.4649 22.5185 12.8138 22.5185H2.63379C2.01222 22.5185 1.47965 22.0148 1.47965 21.3629V11.1703Z" fill="#673275"/>
</svg>
