<svg width="24" height="24" viewBox="0 0 24 24" fill="none" xmlns="http://www.w3.org/2000/svg">
<path d="M21.6005 0H13.6021C12.279 0 11.2026 1.26662 11.2026 2.82356V16.0002C11.2026 17.5571 12.279 18.8237 13.6021 18.8237H21.6005C22.9236 18.8237 24 17.5571 24 16.0002V2.82356C24 1.26662 22.9236 0 21.6005 0ZM23.2002 16.0002C23.2002 17.038 22.4828 17.8826 21.6005 17.8826H13.6021C12.7198 17.8826 12.0025 17.038 12.0025 16.0002V2.82356C12.0025 1.78573 12.7198 0.941187 13.6021 0.941187H21.6005C22.4828 0.941187 23.2002 1.78573 23.2002 2.82356V16.0002Z" fill="#673275"/>
<path d="M1.53288 24.0002H20.0726C22.2894 23.8735 22.015 19.9524 19.7848 20.2354C20.307 19.7461 19.7491 18.9138 19.2813 19.4818C18.9794 19.9537 18.5011 20.2354 18.0012 20.2354H3.60418C2.72185 20.2354 2.00451 19.3909 2.00451 18.353V6.58821C2.00451 5.55038 2.72185 4.70583 3.60418 4.70583H10.4028C10.9262 4.69953 10.9293 3.77282 10.4028 3.76465H3.60418C2.28107 3.76465 1.20468 5.03127 1.20468 6.58821V18.353C1.20468 19.0766 1.43909 19.7352 1.82078 20.2354C-0.418939 19.9604 -0.681924 23.8646 1.5328 24.0002H1.53288ZM12.6949 21.1766C12.5567 21.4577 12.298 21.6472 12.0026 21.6472H9.60307C9.30742 21.6472 9.0489 21.4577 8.91073 21.1766H12.6951H12.6949ZM0.804803 22.0331C0.804803 21.5607 1.13134 21.1766 1.5327 21.1766H8.06026C8.23915 21.9861 8.85973 22.5884 9.60316 22.5884H12.0027C12.7459 22.5884 13.3667 21.9861 13.5456 21.1766H20.0731C20.5389 21.1722 20.8562 21.6764 20.801 22.2024C20.801 22.6749 20.4745 23.059 20.0731 23.059H1.53297C1.06788 23.0634 0.749363 22.5592 0.805077 22.0331H0.804803Z" fill="#673275"/>
<path d="M10.4026 7.52983C10.4026 6.492 9.68527 5.64746 8.80294 5.64746H4.80377C3.92144 5.64746 3.2041 6.492 3.2041 7.52983V9.8828C3.2041 10.9206 3.92144 11.7652 4.80377 11.7652H8.80294C9.68527 11.7652 10.4026 10.9206 10.4026 9.8828V7.52983ZM9.60278 9.8828C9.60278 10.4019 9.24392 10.824 8.80294 10.824H4.80377C4.36279 10.824 4.00394 10.4019 4.00394 9.8828V7.52983C4.00394 7.01071 4.36279 6.58865 4.80377 6.58865H8.80294C9.24392 6.58865 9.60278 7.01071 9.60278 7.52983V9.8828Z" fill="#EA7A3A"/>
<path d="M8.80294 12.7056H4.80377C3.92144 12.7056 3.2041 13.5501 3.2041 14.5879V17.4115C3.2041 18.4493 3.92144 19.2939 4.80377 19.2939H8.80294C9.68527 19.2939 10.4026 18.4493 10.4026 17.4115V14.5879C10.4026 13.5501 9.68527 12.7056 8.80294 12.7056ZM9.60278 17.4115C9.60278 17.9306 9.24392 18.3527 8.80294 18.3527H4.80377C4.36279 18.3527 4.00394 17.9306 4.00394 17.4115V14.5879C4.00394 14.0688 4.36279 13.6468 4.80377 13.6468H8.80294C9.24392 13.6468 9.60278 14.0688 9.60278 14.5879V17.4115Z" fill="#EA7A3A"/>
<path d="M14.4019 7.52993H15.6017C16.484 7.52993 17.2013 6.68539 17.2013 5.64756V3.76519C17.2013 2.72735 16.484 1.88281 15.6017 1.88281H14.4019C13.5196 1.88281 12.8022 2.72735 12.8022 3.76519V5.64756C12.8022 6.68539 13.5196 7.52993 14.4019 7.52993ZM13.6021 3.76519C13.6021 3.24607 13.9609 2.824 14.4019 2.824H15.6017C16.0426 2.824 16.4015 3.24607 16.4015 3.76519V5.64756C16.4015 6.16668 16.0426 6.58875 15.6017 6.58875H14.4019C13.9609 6.58875 13.6021 6.16668 13.6021 5.64756V3.76519Z" fill="#EA7A3A"/>
<path d="M20.8009 1.88232H19.6011C18.7188 1.88232 18.0015 2.72686 18.0015 3.7647V5.64707C18.0015 6.68491 18.7188 7.52945 19.6011 7.52945H20.8009C21.6832 7.52945 22.4006 6.68491 22.4006 5.64707V3.7647C22.4006 2.72686 21.6832 1.88232 20.8009 1.88232ZM21.6007 5.64707C21.6007 6.16619 21.2419 6.58826 20.8009 6.58826H19.6011C19.1602 6.58826 18.8013 6.16619 18.8013 5.64707V3.7647C18.8013 3.24558 19.1602 2.82351 19.6011 2.82351H20.8009C21.2419 2.82351 21.6007 3.24558 21.6007 3.7647V5.64707Z" fill="#EA7A3A"/>
<path d="M17.2013 12.2355V10.3531C17.2013 9.31524 16.484 8.4707 15.6017 8.4707H14.4019C13.5196 8.4707 12.8022 9.31524 12.8022 10.3531V12.2355C12.8022 13.2733 13.5196 14.1178 14.4019 14.1178H15.6017C16.484 14.1178 17.2013 13.2733 17.2013 12.2355ZM13.6021 12.2355V10.3531C13.6021 9.83396 13.9609 9.41189 14.4019 9.41189H15.6017C16.0426 9.41189 16.4015 9.83396 16.4015 10.3531V12.2355C16.4015 12.7546 16.0426 13.1766 15.6017 13.1766H14.4019C13.9609 13.1766 13.6021 12.7546 13.6021 12.2355Z" fill="#EA7A3A"/>
<path d="M20.8009 8.4707H19.6011C18.7188 8.4707 18.0015 9.31524 18.0015 10.3531V12.2355C18.0015 13.2733 18.7188 14.1178 19.6011 14.1178H20.8009C21.6832 14.1178 22.4006 13.2733 22.4006 12.2355V10.3531C22.4006 9.31524 21.6832 8.4707 20.8009 8.4707ZM21.6007 12.2355C21.6007 12.7546 21.2419 13.1766 20.8009 13.1766H19.6011C19.1602 13.1766 18.8013 12.7546 18.8013 12.2355V10.3531C18.8013 9.83396 19.1602 9.41189 19.6011 9.41189H20.8009C21.2419 9.41189 21.6007 9.83396 21.6007 10.3531V12.2355Z" fill="#EA7A3A"/>
<path d="M20.4007 15.0591H14.8019C14.2778 15.0687 14.2748 15.9898 14.8019 16.0003H20.4007C20.9247 15.9906 20.9277 15.0696 20.4007 15.0591Z" fill="#EA7A3A"/>
</svg>
