<svg width="26" height="26" viewBox="0 0 26 26" fill="none" xmlns="http://www.w3.org/2000/svg">
<path d="M12.4248 19.4244L12.0591 19.2768L14.1931 15.0306V15.0122L19.7213 4.04603C19.7416 4.00908 19.7822 3.97212 19.8432 3.95373C19.8838 3.93534 19.9448 3.93534 20.0057 3.95373C21.0422 4.37827 21.5096 5.50457 21.022 6.44611L16.6117 15.1786L16.2459 15.0124L20.636 6.29873C20.9815 5.59716 20.6969 4.78484 19.9856 4.37872L14.5793 15.1602V15.1786L12.4248 19.4244Z" fill="#673275" stroke="#673275" stroke-width="0.3"/>
<path d="M13.7393 19.9911L15.21 17.0698L15.5796 17.2234L14.1089 20.1447L13.7393 19.9911Z" fill="#673275" stroke="#673275" stroke-width="0.3"/>
<path d="M18.9491 25.0002C17.1808 25.0002 15.7176 23.6895 15.7176 22.0649C15.7176 21.308 16.0428 20.5696 16.6322 20.0157L15.2095 17.2094C15.1893 17.1541 15.1893 17.0988 15.2095 17.0618L16.2461 15.0311C16.2867 14.9572 16.3477 14.9204 16.429 14.9204C16.5104 14.9204 16.5713 14.9574 16.612 15.0311L18.6851 19.1664H18.929C20.7175 19.1664 22.1605 20.4771 22.1605 22.1017C22.1806 23.6893 20.7171 25.0002 18.9491 25.0002L18.9491 25.0002ZM15.6362 17.1357L17.0792 19.9973C17.1199 20.0712 17.0994 20.1635 17.0385 20.2004C16.4694 20.6805 16.1443 21.3635 16.1443 22.0651C16.1443 23.4867 17.4045 24.6312 18.9693 24.6312C20.5343 24.6312 21.7943 23.4865 21.7943 22.0651C21.7943 20.6621 20.5341 19.499 18.9693 19.499C18.8474 19.499 18.7254 19.499 18.6238 19.5174C18.5424 19.5358 18.4408 19.4805 18.4206 19.4067L16.4693 15.5299L15.6362 17.1357Z" fill="#673275" stroke="#673275" stroke-width="0.3"/>
<path d="M14.2075 11.108L14.5773 10.9546L15.5905 12.9697L15.2207 13.1231L14.2075 11.108Z" fill="#673275" stroke="#673275" stroke-width="0.3"/>
<path d="M14.1925 15.1785L12.1396 11.1169L12.5054 10.9692L14.5583 15.0308C14.5785 15.0492 14.5785 15.0862 14.5785 15.1047H14.3753L14.1925 15.1785Z" fill="#673275" stroke="#673275" stroke-width="0.3"/>
<path d="M15.2236 17.0666L16.2553 15.0186L16.625 15.1722L15.5932 17.2202L15.2236 17.0666Z" fill="#673275" stroke="#673275" stroke-width="0.3"/>
<path d="M11.876 25C10.0875 25 8.64453 23.6893 8.64453 22.0647C8.64453 20.4401 10.0875 19.1294 11.876 19.1294C13.6645 19.1294 15.1075 20.4401 15.1075 22.0647C15.1077 23.6891 13.6443 25 11.876 25ZM11.876 19.5167C10.3314 19.5167 9.051 20.6614 9.051 22.0828C9.051 23.5043 10.3112 24.6305 11.876 24.6305C13.4411 24.6305 14.7011 23.4858 14.7011 22.0644C14.7012 20.6428 13.4208 19.5167 11.876 19.5167Z" fill="#673275" stroke="#673275" stroke-width="0.3"/>
<path d="M18.949 23.7446C17.9327 23.7446 17.0996 22.9877 17.0996 22.0647C17.0996 21.1415 17.9329 20.3848 18.949 20.3848C19.9654 20.3848 20.7985 21.1417 20.7985 22.0647C20.7782 22.9877 19.9652 23.7446 18.949 23.7446ZM18.949 20.7722C18.1564 20.7722 17.5061 21.3629 17.5061 22.0829C17.5061 22.8029 18.1564 23.3936 18.949 23.3936C19.7417 23.3936 20.392 22.8028 20.392 22.0829C20.3716 21.3445 19.7417 20.7722 18.949 20.7722Z" fill="#EA7A3A" stroke="#EA7A3A" stroke-width="0.3"/>
<path d="M11.8758 23.7446C10.8595 23.7446 10.0264 22.9877 10.0264 22.0647C10.0264 21.1415 10.8597 20.3848 11.8758 20.3848C12.8921 20.3848 13.7252 21.1417 13.7252 22.0647C13.705 22.9877 12.8921 23.7446 11.8758 23.7446ZM11.8758 20.7722C11.0831 20.7722 10.4328 21.3629 10.4328 22.0829C10.4328 22.8029 11.0832 23.3936 11.8758 23.3936C12.6685 23.3936 13.3188 22.8028 13.3188 22.0829C13.2985 21.3445 12.6684 20.7722 11.8758 20.7722Z" fill="#EA7A3A" stroke="#EA7A3A" stroke-width="0.3"/>
<path d="M23.9688 11.2276H18.4811V10.8584H23.8262L24.5579 9.06766L23.7652 7.16621C23.745 7.12926 23.745 7.07392 23.7652 7.03696L24.5579 5.13552L23.7856 3.2155C23.7654 3.17855 23.7654 3.12321 23.7856 3.08625L24.4969 1.36939H2.16038L1.42868 3.16014L2.20091 5.06159C2.22115 5.09855 2.22115 5.15389 2.20091 5.19084L1.42868 7.09229L2.22134 8.99374C2.24159 9.03069 2.24159 9.08604 2.22134 9.12299L1.51008 10.8399H16.4279V11.209L1.20504 11.2092C1.14411 11.2092 1.08318 11.1723 1.0425 11.1353C1.00182 11.0985 0.981569 11.0246 1.02206 10.9693L1.81472 9.06783L1.02206 7.16621C1.00182 7.12925 1.00182 7.07391 1.02206 7.03696L1.81472 5.13551L1.02206 3.2155C1.00182 3.17854 1.00182 3.1232 1.02206 3.08625L1.83496 1.11086C1.85539 1.05552 1.93676 1 2.01812 1H24.7816C24.8425 1 24.9035 1.03695 24.9441 1.07391C24.9848 1.11086 24.9848 1.18459 24.9644 1.24011L24.1717 3.14156L24.9644 5.04301C24.9846 5.07996 24.9846 5.13531 24.9644 5.17226L24.1922 7.09227L24.9848 8.99372C25.0051 9.03067 25.0051 9.08602 24.9848 9.12297L24.1719 11.0984C24.1312 11.1723 24.0499 11.2276 23.9685 11.2276L23.9688 11.2276Z" fill="#673275" stroke="#673275" stroke-width="0.3"/>
<path d="M15.6159 11.0428H15.2095V9.75048H15.6159V11.0428ZM15.6159 9.0121H15.2095V7.53519H15.6159V9.0121ZM15.6159 6.7968H15.2095V5.50448H15.6159V6.7968ZM15.6159 4.76592H15.2095V3.28901H15.6159V4.76592ZM15.6159 2.55062H15.2095V1.2583H15.6159V2.55062Z" fill="#EA7A3A" stroke="#EA7A3A" stroke-width="0.3"/>
<path d="M6.47949 7.69709L10.2449 4.27686L10.5323 4.53798L6.76697 7.95822L6.47949 7.69709Z" fill="#EA7A3A" stroke="#EA7A3A" stroke-width="0.3"/>
<path d="M6.77451 5.65247C6.46967 5.65247 6.14439 5.54178 5.92094 5.32023C5.69728 5.11708 5.55518 4.84018 5.55518 4.5449C5.55518 4.24945 5.67703 3.97254 5.92094 3.76957C6.38831 3.34504 7.16069 3.34504 7.64851 3.76957C7.87217 3.97273 8.01427 4.24962 8.01427 4.5449C8.01427 4.84036 7.89241 5.11726 7.64851 5.32023C7.40461 5.54178 7.09978 5.65247 6.77451 5.65247ZM6.77451 3.80635C6.57128 3.80635 6.36806 3.88025 6.20534 4.02789C6.0428 4.17553 5.96144 4.36013 5.96144 4.54488C5.96144 4.74804 6.0428 4.93263 6.20534 5.06188C6.53061 5.35733 7.03868 5.35733 7.36376 5.06188C7.5263 4.91423 7.60766 4.72964 7.60766 4.54488C7.60766 4.34173 7.5263 4.15713 7.36376 4.02789C7.20141 3.88025 6.99819 3.80635 6.77451 3.80635Z" fill="#EA7A3A" stroke="#EA7A3A" stroke-width="0.3"/>
<path d="M10.2295 8.79082C9.90422 8.79082 9.59937 8.68013 9.37592 8.45859C8.90855 8.03405 8.90855 7.33247 9.37592 6.88936C9.59958 6.68621 9.90441 6.55713 10.2295 6.55713C10.5548 6.55713 10.8596 6.66782 11.0831 6.88936C11.5504 7.3139 11.5504 8.01548 11.0831 8.45859C10.8596 8.68013 10.5548 8.79082 10.2295 8.79082ZM10.2295 6.9447C10.0058 6.9447 9.80261 7.01861 9.66033 7.16625C9.33506 7.4617 9.33506 7.9232 9.66033 8.21848C9.82287 8.36612 10.0261 8.44003 10.2295 8.44003C10.4531 8.44003 10.6564 8.36612 10.7986 8.21848C11.1239 7.92302 11.1239 7.46153 10.7986 7.16625C10.6564 7.01861 10.4531 6.9447 10.2295 6.9447Z" fill="#EA7A3A" stroke="#EA7A3A" stroke-width="0.3"/>
</svg>
