<svg width="40" height="40" viewBox="0 0 40 40" fill="none" xmlns="http://www.w3.org/2000/svg">
<path d="M20.0001 21.4545C24.82 21.4545 28.7273 17.5472 28.7273 12.7272C28.7273 7.90732 24.82 4 20.0001 4C15.1801 4 11.2728 7.90732 11.2728 12.7272C11.2728 17.5472 15.1801 21.4545 20.0001 21.4545Z" fill="#EA7A3A"/>
<path d="M32.4205 26.1888C31.0455 25.4835 28.8551 24.4942 26.2359 23.7875C25.8722 23.6853 25.4887 23.8877 25.3623 24.2442L22.3813 32.5606L21.4788 28.0468L22.8723 23.8663C22.9088 23.7569 22.9187 23.6404 22.9012 23.5264C22.8836 23.4123 22.8391 23.3042 22.7714 23.2108C22.7042 23.1173 22.6157 23.0411 22.5132 22.9886C22.4106 22.9361 22.2971 22.9088 22.1819 22.9089H17.8183C17.7031 22.9088 17.5896 22.9361 17.4871 22.9886C17.3846 23.0411 17.296 23.1173 17.2288 23.2108C17.1611 23.3041 17.1166 23.4123 17.099 23.5264C17.0815 23.6404 17.0914 23.7569 17.128 23.8663L18.5215 28.0468L17.6189 32.5606L14.638 24.2442C14.5116 23.8877 14.1266 23.6859 13.7644 23.7875C11.145 24.4942 8.9547 25.4835 7.57975 26.1888C5.37231 27.3223 4.00015 29.5595 4.00015 32.0261V33.0908C4.00015 34.6951 5.30556 35.9999 6.90925 35.9999H33.091C34.6947 35.9999 36.0001 34.6952 36.0001 33.0908V32.0261C36 29.5595 34.6279 27.3223 32.4205 26.1888Z" fill="#EA7A3A"/>
</svg>
