<svg width="24" height="24" viewBox="0 0 24 24" fill="none" xmlns="http://www.w3.org/2000/svg">
<path d="M17.7689 12.7143C17.2396 12.7143 16.8064 12.2381 16.8064 11.6557C16.8064 11.0736 17.2394 10.5972 17.7689 10.5972C19.3388 10.5972 20.608 9.19484 20.6022 7.4748C20.5961 5.75476 19.3271 4.35243 17.7631 4.35887C17.5224 4.35887 17.2818 4.39186 17.0533 4.45808C16.536 4.60367 16.0128 4.26635 15.8804 3.69738C15.748 3.12842 16.0547 2.55299 16.5721 2.40739C19.1164 1.67971 21.721 3.35338 22.3826 6.15828C23.0443 8.95649 21.5225 11.8209 18.972 12.5485C18.5749 12.6547 18.1719 12.7142 17.7689 12.7142L17.7689 12.7143Z" fill="#EA7A3A"/>
<path d="M8.79367 12.7144C5.59955 12.7144 3.01318 9.86981 3.01318 6.3572C3.01318 2.84458 5.59971 0 8.79367 0C11.9878 0 14.5742 2.84458 14.5742 6.3572C14.5681 9.86999 11.9816 12.7144 8.79367 12.7144ZM8.79367 2.11631C6.66429 2.11631 4.93788 4.01496 4.93788 6.35678C4.93788 8.6986 6.66429 10.5973 8.79367 10.5973C10.923 10.5973 12.6495 8.6986 12.6495 6.35678C12.6495 4.01496 10.923 2.11631 8.79367 2.11631Z" fill="#EA7A3A"/>
<path d="M16.6259 24.0001C16.0966 24.0001 15.6633 23.5239 15.6633 22.9415V21.2083C15.6633 18.7474 13.8467 16.7563 11.6152 16.7563H5.97324C3.73559 16.7563 1.92507 18.7541 1.92507 21.2083V22.9415C1.92507 23.5236 1.49206 24.0001 0.962537 24.0001C0.433227 24.0001 0 23.5239 0 22.9415V21.2083C0.00608393 17.5832 2.67676 14.6396 5.97276 14.6396H11.6147C14.9109 14.6463 17.5874 17.5835 17.5874 21.2083V22.9415C17.5876 23.5239 17.1546 24.0001 16.6253 24.0001H16.6259Z" fill="#673275"/>
<path d="M23.0377 24.0001C22.5084 24.0001 22.0752 23.5239 22.0752 22.9416V21.2083C22.0752 18.7474 20.2586 16.7563 18.027 16.7563C17.4977 16.7563 17.0645 16.2801 17.0645 15.6977C17.0645 15.1156 17.4975 14.6392 18.027 14.6392C21.3233 14.6459 23.9997 17.583 23.9997 21.2078V22.941C24 23.5236 23.5667 23.9998 23.0374 23.9998L23.0377 24.0001Z" fill="#673275"/>
</svg>
