<svg width="48" height="48" viewBox="0 0 48 48" fill="none" xmlns="http://www.w3.org/2000/svg">
<path d="M37.26 14.2998C37.34 15.5198 37.24 16.8998 37 18.4398L35.54 27.8198C34.3 35.6398 30.68 38.2798 22.86 37.0598L13.48 35.5798C10.78 35.1598 8.69998 34.4398 7.17998 33.3598C4.27998 31.3398 3.43998 28.0198 4.23998 22.8998L5.71998 13.5198C6.95998 5.69979 10.58 3.05979 18.4 4.27979L27.78 5.75979C34.06 6.73979 37 9.29979 37.26 14.2998Z" stroke="#673275" stroke-width="2" stroke-linecap="round" stroke-linejoin="round"/>
<path d="M40.9997 26.9398L37.9997 35.9598C35.4997 43.4798 31.4997 45.4798 23.9797 42.9798L14.9597 39.9798C10.4197 38.4798 7.89969 36.3998 7.17969 33.3598C8.69969 34.4398 10.7797 35.1598 13.4797 35.5798L22.8597 37.0598C30.6797 38.2798 34.2997 35.6398 35.5397 27.8198L36.9997 18.4398C37.2397 16.8998 37.3397 15.5198 37.2597 14.2998C42.0397 16.8398 43.0797 20.6798 40.9997 26.9398Z" stroke="#673275" stroke-width="2" stroke-linecap="round" stroke-linejoin="round"/>
<path d="M16.48 17.96C18.402 17.96 19.96 16.402 19.96 14.48C19.96 12.558 18.402 11 16.48 11C14.558 11 13 12.558 13 14.48C13 16.402 14.558 17.96 16.48 17.96Z" stroke="#EA7A3A" stroke-width="2" stroke-linecap="round" stroke-linejoin="round"/>
</svg>
